<svg width="504" height="212" viewBox="0 0 504 212" fill="none" xmlns="http://www.w3.org/2000/svg">
<path d="M125.796 150.45H152.087V165.057H125.796V208H110.313V165.057H0.17964V150.45L77.8862 3.50898H94.8298L17.4153 150.45H110.313V86.1818H125.796V150.45ZM477.264 150.45H503.556V165.057H477.264V208H461.782V165.057H351.649V150.45L429.355 3.50898H446.299L368.884 150.45H461.782V86.1818H477.264V150.45Z" fill="#E36414"/>
<path d="M307.863 182.585C294.425 201.671 275.632 211.213 251.482 211.213C227.333 211.213 208.539 201.671 195.101 182.585C181.663 163.694 174.944 138.084 174.944 105.754C174.944 73.4254 181.663 47.8154 195.101 28.9243C208.539 9.83847 227.333 0.295559 251.482 0.295559C275.632 0.295559 294.425 9.83847 307.863 28.9243C321.301 48.0101 328.02 73.6202 328.02 105.754C328.02 138.084 321.301 163.694 307.863 182.585ZM206.786 172.652C217.692 188.427 232.591 196.315 251.482 196.315C270.373 196.315 285.272 188.427 296.178 172.652C306.89 156.682 312.245 134.383 312.245 105.754C312.245 76.931 306.89 54.7291 296.178 39.1489C285.467 23.1791 270.568 15.1942 251.482 15.1942C232.396 15.1942 217.498 23.1791 206.786 39.1489C196.075 54.7291 190.719 76.931 190.719 105.754C190.719 134.383 196.075 156.682 206.786 172.652Z" fill="#212529"/>
</svg>
