<svg width="380" height="371" viewBox="0 0 380 371" fill="none" xmlns="http://www.w3.org/2000/svg">
<g clip-path="url(#clip0_1986_1816)">
<path d="M214.555 205.961C214.555 205.961 227.436 202.354 230.124 201.671C232.812 200.988 237.792 199.233 238.23 199.233C238.669 199.233 238.669 199.233 238.669 199.233C238.669 199.233 241.5 199.135 241.647 199.233C241.794 199.332 242.086 200.648 242.086 200.648C242.086 200.648 242.233 201.922 239.937 202.576C237.643 203.232 230.122 205.133 230.122 205.133" stroke="#D3D3D3" stroke-width="0.689591" stroke-miterlimit="10"/>
<path d="M223.586 220.394C223.586 220.394 221.779 214.494 220.902 211.471C220.023 208.449 217.63 199.33 217.143 197.138C216.655 194.943 215.922 192.164 216.314 191.822C216.314 191.822 217.681 190.116 221.636 189.775C225.59 189.433 227.886 188.995 228.031 188.947C228.177 188.899 227.689 188.947 228.177 188.899C228.666 188.85 234.328 189.045 235.499 188.509C236.67 187.972 238.039 186.949 238.039 186.949L239.455 185.292" stroke="#D3D3D3" stroke-width="0.689591" stroke-miterlimit="10"/>
<path d="M221.099 189.831C221.099 189.831 221.594 192.309 221.099 192.894C220.604 193.479 219.578 193.722 219.725 194.845C219.872 195.966 221.776 201.787 222.214 203.825C222.653 205.863 224.997 215.225 225.339 215.322C225.681 215.418 227.929 214.98 228.319 215.322C228.709 215.664 229.832 218.539 229.832 218.539" stroke="#D3D3D3" stroke-width="0.689591" stroke-miterlimit="10"/>
<path d="M228.712 188.887L229.835 193.625C229.493 193.967 227.576 195.088 227.827 196.161C228.079 197.234 232.326 212.983 232.326 212.983L236.036 212.446L237.354 213.714L238.039 216.005" stroke="#D3D3D3" stroke-width="0.689591" stroke-miterlimit="10"/>
<path d="M219.141 221.677C219.141 221.677 233.738 217.222 240.816 215.711C247.895 214.2 252.094 213.322 252.142 212.98C252.191 212.639 252.826 210.639 252.826 210.639L254.975 209.86L252.094 199.187C252.094 199.187 253.51 197.622 254.975 196.549C256.44 195.476 258.442 193.038 258.442 193.038" stroke="#D3D3D3" stroke-width="0.689591" stroke-miterlimit="10"/>
<path d="M228.875 200.145C228.875 200.145 233.691 196.453 235.155 196.015C236.62 195.577 239.354 194.063 240.33 194.357C241.306 194.65 246.042 196.893 248.189 197.574C250.338 198.257 252.095 199.187 252.095 199.187" stroke="#D3D3D3" stroke-width="0.689591" stroke-miterlimit="10"/>
<path d="M155.307 47.754C154.847 48.7883 153.928 51.3398 153.928 53.2707C153.928 55.6843 154.618 58.0978 153.583 59.1322C153.316 59.3993 152.888 59.8043 152.376 60.3175M146.515 75.8548C146.457 73.9584 146.618 69.4761 147.722 66.7177C148.745 64.16 150.906 61.792 152.376 60.3175M152.376 60.3175C152.434 61.3591 152.825 63.5111 153.928 63.787C155.031 64.0628 159.56 63.9019 161.686 63.787M163.41 48.4436L168.927 73.6136M135.309 40.1685C135.596 43.2716 135.654 49.8572 133.585 51.3743C130.999 53.2707 127.034 52.4087 124.62 53.9603C123.056 54.9658 122.288 56.2611 121.942 57.2358M121.69 75.3376L121 65.8557C121.23 63.6146 121.69 58.9943 121.69 58.4426C121.69 58.1999 121.754 57.7651 121.942 57.2358M121.942 57.2358C124.674 57.7962 130.413 59.197 131.516 60.3175C132.62 61.438 133.815 64.2467 134.275 65.5109C134.16 66.6602 133.688 69.3726 132.723 71.0277C131.758 72.6827 131.057 74.5905 130.827 75.3376" stroke="#D3D3D3" stroke-width="0.689591"/>
<path d="M169.791 27.2389L161.516 28.523M138.76 40.5136C139.047 39.824 139.691 38.2379 139.966 37.4104C140.311 36.376 144.276 31.8937 145.138 30.5145C146 29.1353 148.241 29.6525 149.965 29.9973C151.689 30.3421 152.896 31.7213 154.965 31.3765C156.62 31.1006 158.873 29.5376 159.792 28.7905L161.516 28.523M134.277 21.8946C133.932 20.7453 133.519 18.2398 134.622 17.4123C136.001 16.3779 137.208 15.5159 139.104 16.0331C141.001 16.5503 141.001 16.3778 145.483 19.1362C149.965 21.8946 153.241 23.7909 154.103 24.6529C154.713 25.2632 156.274 26.3057 157.379 26.9847M161.516 28.523C160.712 28.3248 158.965 27.8595 158.413 27.5837C158.212 27.483 157.834 27.2648 157.379 26.9847M139.449 8.79233C139.449 9.06816 140.484 13.9643 141.001 16.3778M157.379 26.9847L152.724 2.24121M169.274 2.7584C170.193 6.92767 172.412 16.5919 173.929 21.8946C175.825 28.523 176.687 28.9628 178.066 29.4801C179.445 29.9973 183.066 28.7905 184.1 28.7905C185.135 28.7905 185.135 29.8249 185.479 32.7556C185.824 35.6864 186.169 39.6516 186.169 40.5136C186.169 41.3755 185.997 42.7547 183.583 42.7547C181.652 42.7547 180.135 44.1339 179.618 44.8235" stroke="#D3D3D3" stroke-width="0.689591" stroke-linecap="round"/>
<path d="M175.132 48.0988C175.821 46.9494 177.683 44.6853 179.614 44.8232C182.027 44.9956 185.475 47.5816 192.027 46.892C195.787 46.4962 205.335 44.4197 213.231 42.5989M272.364 81.0267L274.605 77.7512C275.154 77.3591 275.988 76.7673 276.8 76.1996M191.337 47.5816C192.237 50.7058 193.418 54.8163 194.653 59.1322M201.853 91.8878C202.141 91.6579 202.681 91.0603 202.543 90.5086C202.37 89.819 202.198 86.5435 201.336 82.9231C200.85 80.8826 197.597 69.4234 194.653 59.1322M185.82 94.4738C190.36 93.7267 200.612 92.0602 205.301 91.3706C211.163 90.5086 218.231 88.095 219.265 87.7503C219.657 87.6196 220.915 87.2262 222.369 86.7749M258.744 62.925L255.124 65.1661L249.09 68.4417L244.435 71.8897C243.412 72.8453 241.743 74.4413 240.47 75.7534M258.744 62.925C260.718 64.467 263.841 66.8863 266.502 68.9037M258.744 62.925C259.721 61.7757 262.02 59.2012 263.399 58.0978C265.123 56.7187 268.226 55.5119 270.295 55.1671C272.364 54.8223 278.398 54.3051 279.605 53.6155C280.57 53.0638 286.788 51.6617 289.776 51.0295L294.793 48.9608M276.8 76.1996C277.772 75.5192 278.711 74.8736 279.087 74.648C279.949 74.1308 281.156 73.4412 282.708 71.8897C283.949 70.6484 284.719 71.3725 284.949 71.8897C285.696 71.5449 287.845 70.6139 290.466 69.6485C293.086 68.6831 298.453 67.2924 300.81 66.7177C301.154 65.7408 301.844 63.6835 301.844 63.2698C301.844 62.7526 300.637 58.4426 300.12 56.7187C299.603 54.9947 299.086 53.7879 298.741 53.6155C298.396 53.4431 295.81 50.3399 295.293 49.8227C295.113 49.6425 294.953 49.3576 294.793 48.9608M276.8 76.1996C275.891 75.1652 272.881 73.2688 271.329 72.4069C270.754 72.0874 268.8 70.6453 266.502 68.9037M279.949 81.0267C280.501 82.5438 282.018 84.5322 282.708 85.3367C282.765 85.9688 283.087 87.3365 283.915 87.7503C284.949 88.2674 289.948 90.8534 290.466 91.8878C290.879 92.7153 292.362 93.9566 293.052 94.4738M240.47 75.7534C239.6 76.6507 238.914 77.4151 238.746 77.7512C238.229 78.7856 233.919 81.8887 232.368 82.9231C231.126 83.7506 228.288 84.877 227.023 85.3367C225.843 85.6997 223.985 86.2731 222.369 86.7749M240.47 75.7534C240.47 76.7067 240.643 78.7511 241.332 79.3028M245.987 83.4403C246.447 84.3598 247.711 85.9228 249.09 84.8195C250.814 83.4403 254.262 79.7489 257.02 77.7512C259.227 76.153 262.767 73.1776 264.261 71.8897L266.502 68.9037M213.231 42.5989C216.34 41.8822 219.192 41.2051 221.334 40.6857C224.537 39.7582 228.584 38.5859 232.885 37.3401M213.231 42.5989C214.266 45.8114 216.369 52.7535 216.507 54.8223C216.679 57.4082 218.748 65.5109 219.265 68.4417C219.679 70.7863 221.507 81.6407 222.369 86.7749M190.303 75.7534C191.912 75.0976 195.233 73.8205 195.647 73.9584C196.164 74.1308 196.509 78.4408 197.198 78.4408C197.888 78.4408 207.37 76.6865 209.956 75.7534C210.062 75.715 210.177 75.6747 210.301 75.6326M232.885 37.3401C233.402 38.4553 234.574 41.2718 235.126 43.6164C235.619 45.7122 235.76 47.1909 235.737 47.9264M232.885 37.3401C234.862 36.7674 236.892 36.1791 238.919 35.592M194.653 59.1322C197.687 58.504 202.181 57.5747 206.508 56.6816M235.643 49.9218C235.713 50.5472 235.833 51.2716 235.988 51.8915C236.333 53.2707 236.333 57.5806 235.988 58.615C235.643 59.6494 233.919 63.4422 232.368 64.9937C230.816 66.5453 224.437 71.0277 222.369 71.8897C220.385 72.7162 213.171 74.6522 210.301 75.6326M235.643 49.9218C235.558 49.1558 235.548 48.5385 235.643 48.4436C235.692 48.3944 235.727 48.2194 235.737 47.9264M235.643 49.9218C234.724 50.0612 232.678 50.3744 231.85 50.5123C230.816 50.6847 222.369 53.4431 218.921 54.1327C217.368 54.4431 212.076 55.5324 206.508 56.6816M235.737 47.9264C236.625 47.9264 238.85 47.9264 240.643 47.9264C242.884 47.9264 244.953 47.2368 247.539 47.5816C248.727 47.74 249.624 47.9713 250.297 48.2085M258.055 62.925C257.997 61.8331 257.917 59.4425 258.055 58.615C258.227 57.5806 256.503 56.7187 255.297 55.6843C254.09 54.6499 252.711 52.7535 252.366 51.5467C252.021 50.3399 252.366 49.3056 251.849 48.9608C251.569 48.7744 251.088 48.4874 250.297 48.2085M246.159 33.4937C254.349 31.12 261.212 29.1292 262.365 28.7902C265.296 27.9283 268.054 27.0663 270.468 27.2387C272.881 27.4111 273.398 25.5146 275.639 25.687C277.881 25.8594 277.708 26.3767 280.639 26.0318C282.608 25.8002 285.277 25.1018 287.026 24.8251M246.159 33.4937C246.964 36.1209 248.642 41.7201 248.918 43.0992C249.194 44.4784 249.952 47.0801 250.297 48.2085M246.159 33.4937C243.82 34.1718 241.372 34.881 238.919 35.592M238.919 35.592C239.551 33.0374 241.022 27.7904 241.849 27.2387C242.884 26.549 244.953 26.0319 245.125 25.1699C245.297 24.3079 247.194 19.8255 247.539 19.4807C247.883 19.1359 256.158 15.1708 257.882 13.964C259.606 12.7572 259.089 12.7572 262.882 12.0676C266.675 11.378 272.536 10.6885 275.639 10.3437C278.743 9.99886 279.432 9.48167 280.639 8.96448C281.604 8.55072 282.995 7.98756 283.57 7.75769M287.026 24.8251C287.88 24.6899 288.515 24.6553 288.742 24.8251C289.431 25.3423 290.638 27.9282 290.466 29.135C290.293 30.3418 289.259 32.9278 289.431 33.9622C289.604 34.9965 293.052 43.0992 293.741 45.5128C294.19 47.0853 294.493 48.2187 294.793 48.9608M287.026 24.8251L282.88 1.03418M206.508 56.6816L210.301 75.6326M145.307 30.5142C143.41 30.5142 138.825 30.5142 135.652 30.5142C131.687 30.5142 128.757 30.5142 127.722 30.5142C126.688 30.5142 124.619 30.859 123.067 31.0314C121.826 31.1693 117.148 31.8934 114.965 32.2382C114.62 32.6979 114.206 33.7898 115.31 34.4793C116.689 35.3413 117.033 35.1689 117.723 36.0309C118.413 36.8929 118.93 37.0653 118.93 37.5825C118.93 37.9963 118.93 38.6744 118.93 38.9617M188.406 105.335C184.613 104.53 176.924 102.887 176.511 102.749C175.994 102.576 172.718 102.232 172.373 102.749C172.242 102.946 171.61 103.518 170.822 104.198M162.374 110.507C163.638 109.702 166.374 107.921 167.201 107.231C167.842 106.698 169.539 105.305 170.822 104.198M168.063 93.9566C167.718 94.4738 163.926 94.8186 165.132 96.3701C166.339 97.9217 166.339 99.3009 167.201 99.9905C167.891 100.542 169.902 103.026 170.822 104.198M172.373 119.644C175.304 116.598 181.545 110.507 183.062 110.507C184.579 110.507 187.946 110.966 189.441 111.196" stroke="#D3D3D3" stroke-width="0.689591" stroke-linecap="round"/>
<path d="M108.244 39.479C108.474 41.7202 109.037 47.1335 109.451 50.8573C109.5 51.3004 109.555 51.7626 109.613 52.2364M110.485 71.7174C110.485 71.3036 110.83 64.8789 111.003 61.7183C110.699 59.8957 110.047 55.7449 109.613 52.2364M109.613 52.2364C107.146 54.8224 102.141 60.3391 101.865 61.7183C101.521 63.4423 101.521 64.9939 101.348 67.7522C101.176 70.5106 99.9691 72.5794 99.9691 73.4414C99.9691 74.3034 99.9691 77.0617 99.9691 77.5789C99.9691 78.0961 99.1071 79.6477 98.9347 81.7165C98.7623 83.7852 100.141 84.3024 98.9347 85.3368C97.7279 86.3712 94.9695 90.3363 95.4867 91.5431C96.0039 92.7499 101.865 98.439 104.624 101.715C107.382 104.99 108.417 106.025 110.485 108.438C112.554 110.852 115.312 112.748 118.588 116.196C121.208 118.954 122.438 119.414 122.726 119.299M98.9347 79.6477C96.1188 80.1074 90.3148 81.0958 89.6252 81.3717C88.7632 81.7165 88.5908 81.3717 88.7632 85.3368C88.9356 89.302 89.6252 96.1979 89.6252 97.7495C89.6252 99.301 90.6596 101.025 92.7284 101.715C94.3834 102.266 96.2912 102.174 97.0383 102.059" stroke="#D3D3D3" stroke-width="0.689591" stroke-linecap="round" stroke-linejoin="round"/>
<path d="M115.656 87.9228L115.991 88.002L116.068 87.6781L115.747 87.5902L115.656 87.9228ZM108.932 98.7838L108.741 99.0707L108.741 99.0707L108.932 98.7838ZM120.827 107.059L120.552 107.266L120.552 107.266L120.827 107.059ZM121.991 108.707C122.14 108.826 122.357 108.802 122.476 108.654C122.595 108.505 122.571 108.288 122.422 108.169L121.991 108.707ZM116.69 79.1305L116.663 79.4743L116.69 79.1305ZM129.275 80.1649L129.213 79.8256L129.275 80.1649ZM117.552 82.0612L117.213 81.9977L117.552 82.0612ZM117.552 92.9223L117.875 92.8012L117.552 92.9223ZM117.552 65.3387L117.409 65.6525L117.552 65.3387ZM100.312 59.3047L100.369 58.9646L100.312 59.3047ZM94.2782 57.0636L94.4101 56.745L94.394 56.7383L94.3773 56.7333L94.2782 57.0636ZM88.7615 52.0641L88.4214 52.1207L88.7615 52.0641ZM88.0719 44.3062H88.4167V43.9614H88.0719V44.3062ZM99.1867 83.773L115.565 88.2553L115.747 87.5902L99.3688 83.1079L99.1867 83.773ZM104.712 101.421C105.188 100.861 105.975 100.076 106.783 99.536C107.188 99.2656 107.58 99.0696 107.927 98.9853C108.27 98.9018 108.536 98.9345 108.741 99.0707L109.123 98.4969C108.707 98.2194 108.225 98.2033 107.764 98.3152C107.307 98.4262 106.839 98.6698 106.4 98.9626C105.522 99.5491 104.688 100.384 104.187 100.974L104.712 101.421ZM108.741 99.0707C109.479 99.5627 109.604 99.8143 109.852 100.062C110.149 100.359 110.504 100.501 111.456 100.675L111.58 99.9962C110.636 99.8246 110.473 99.7083 110.34 99.5744C110.156 99.3911 109.937 99.0394 109.123 98.4969L108.741 99.0707ZM111.456 100.675C111.943 100.763 112.342 100.807 112.672 100.843C113.009 100.878 113.255 100.903 113.467 100.952C113.67 100.998 113.83 101.063 113.984 101.173C114.142 101.287 114.311 101.459 114.513 101.743L115.074 101.342C114.846 101.022 114.626 100.785 114.386 100.613C114.141 100.438 113.891 100.341 113.62 100.279C113.359 100.22 113.065 100.191 112.745 100.157C112.418 100.122 112.041 100.08 111.58 99.9962L111.456 100.675ZM114.513 101.743C114.753 102.078 115.232 102.553 115.794 103.07C116.365 103.595 117.047 104.185 117.716 104.757C118.386 105.33 119.04 105.882 119.561 106.336C119.821 106.562 120.045 106.762 120.219 106.925C120.399 107.094 120.507 107.207 120.552 107.266L121.103 106.852C121.018 106.739 120.868 106.588 120.691 106.422C120.508 106.25 120.277 106.044 120.014 105.816C119.49 105.359 118.829 104.801 118.164 104.232C117.496 103.662 116.821 103.078 116.261 102.562C115.692 102.039 115.266 101.61 115.074 101.342L114.513 101.743ZM120.552 107.266C120.991 107.852 121.696 108.471 121.991 108.707L122.422 108.169C122.143 107.945 121.491 107.369 121.103 106.852L120.552 107.266ZM100.191 74.626C102.178 75.3749 105.382 76.515 108.54 77.5028C111.685 78.4867 114.825 79.3329 116.663 79.4743L116.716 78.7867C114.969 78.6523 111.902 77.8319 108.746 76.8447C105.603 75.8615 102.411 74.7259 100.434 73.9807L100.191 74.626ZM116.663 79.4743C118.897 79.6461 121.555 79.9893 123.914 80.249C125.09 80.3784 126.191 80.487 127.119 80.5414C128.037 80.5953 128.818 80.5985 129.337 80.5041L129.213 79.8256C128.784 79.9037 128.078 79.9069 127.159 79.853C126.25 79.7997 125.163 79.6927 123.99 79.5635C121.651 79.3061 118.965 78.9597 116.716 78.7867L116.663 79.4743ZM129.337 80.5041C130.802 80.2376 132.169 80.3951 132.648 80.5015L132.798 79.8283C132.242 79.7048 130.782 79.5405 129.213 79.8256L129.337 80.5041ZM116.696 74.0241C116.867 74.9048 117.098 76.3672 117.234 77.8814C117.372 79.4047 117.411 80.9444 117.213 81.9977L117.891 82.1248C118.107 80.9714 118.059 79.3505 117.921 77.8194C117.782 76.2794 117.548 74.7938 117.373 73.893L116.696 74.0241ZM115.32 87.8435L115.239 88.1883L115.91 88.3468L115.991 88.002L115.32 87.8435ZM117.213 81.9977C116.962 83.3385 116.46 84.6019 116.019 85.6806C115.801 86.2142 115.595 86.7111 115.45 87.1382C115.308 87.5551 115.204 87.9591 115.23 88.2946L115.918 88.2405C115.904 88.0588 115.962 87.7733 116.103 87.3604C116.24 86.9579 116.436 86.4851 116.658 85.9412C117.097 84.8649 117.625 83.5424 117.891 82.1248L117.213 81.9977ZM115.239 88.1883L115.035 89.0503L115.706 89.2088L115.91 88.3468L115.239 88.1883ZM115.035 89.0503L112.389 100.256L113.06 100.415L115.706 89.2088L115.035 89.0503ZM115.087 89.3253C115.644 90.1337 116.832 91.9855 117.229 93.0434L117.875 92.8012C117.444 91.6524 116.207 89.7345 115.654 88.9338L115.087 89.3253ZM117.229 93.0434C117.332 93.3188 117.369 93.776 117.345 94.3573C117.321 94.926 117.243 95.5689 117.147 96.1881C117.051 96.8062 116.939 97.3934 116.85 97.8508C116.806 98.0781 116.767 98.2762 116.739 98.4274C116.714 98.5616 116.69 98.7016 116.69 98.7838H117.38C117.38 98.7913 117.38 98.7785 117.387 98.7276C117.394 98.6834 117.404 98.6249 117.417 98.5517C117.444 98.4052 117.482 98.2128 117.527 97.9822C117.616 97.5237 117.73 96.9256 117.828 96.2938C117.926 95.6632 118.009 94.9915 118.034 94.3858C118.058 93.7926 118.03 93.2154 117.875 92.8012L117.229 93.0434ZM118.583 74.8683C118.786 73.4208 118.995 71.2037 118.961 69.2548C118.945 68.2823 118.867 67.3591 118.692 66.6266C118.604 66.2604 118.488 65.9275 118.333 65.6558C118.179 65.3849 117.973 65.1513 117.695 65.0248L117.409 65.6525C117.51 65.6984 117.622 65.8006 117.734 65.9967C117.845 66.1919 117.942 66.457 118.021 66.7875C118.18 67.4486 118.255 68.314 118.272 69.2666C118.304 71.1679 118.1 73.347 117.9 74.7727L118.583 74.8683ZM117.695 65.0248C115.778 64.1536 111.278 62.5962 109.368 62.0753L109.186 62.7405C111.069 63.254 115.533 64.7997 117.409 65.6525L117.695 65.0248ZM109.368 62.0753C108.438 61.8217 106.475 61.0966 104.59 60.4034C103.653 60.0588 102.74 59.7238 101.996 59.4641C101.266 59.2093 100.663 59.0137 100.369 58.9646L100.255 59.6448C100.478 59.682 101.017 59.8527 101.769 60.1151C102.507 60.3726 103.414 60.7056 104.352 61.0506C106.217 61.7366 108.219 62.4769 109.186 62.7405L109.368 62.0753ZM100.369 58.9646C100.195 58.9356 99.8449 58.8313 99.3665 58.6672C98.8975 58.5063 98.3295 58.2967 97.7328 58.0689C96.5398 57.6135 95.2413 57.0889 94.4101 56.745L94.1464 57.3822C94.9817 57.7278 96.2864 58.2549 97.4868 58.7132C98.0869 58.9422 98.6631 59.155 99.1427 59.3195C99.6128 59.4808 100.016 59.6049 100.255 59.6448L100.369 58.9646ZM94.3773 56.7333C94.0545 56.6365 93.5471 56.5621 93.0803 56.6823C92.8415 56.7437 92.6002 56.8598 92.4061 57.0631C92.2096 57.269 92.0822 57.543 92.0397 57.8828L92.724 57.9683C92.7505 57.7565 92.8228 57.6253 92.905 57.5392C92.9896 57.4505 93.106 57.3877 93.2522 57.3501C93.5555 57.272 93.9273 57.3183 94.1792 57.3938L94.3773 56.7333ZM92.0397 57.8828C91.9691 58.4477 91.6573 58.7965 91.3142 59.0132C90.9564 59.2392 90.5887 59.3048 90.4855 59.3048V59.9944C90.727 59.9944 91.2214 59.8875 91.6824 59.5963C92.1582 59.2958 92.6222 58.7826 92.724 57.9683L92.0397 57.8828ZM90.4855 59.3048C90.5488 59.3048 90.597 59.3249 90.6255 59.3415C90.6526 59.3572 90.6672 59.3727 90.6706 59.3764C90.6761 59.3824 90.6671 59.3737 90.6466 59.3343C90.6071 59.2582 90.5562 59.1295 90.4961 58.9412C90.3772 58.5691 90.2399 58.0216 90.0896 57.3347C89.7898 55.9641 89.4461 54.0745 89.1016 52.0074L88.4214 52.1207C88.7665 54.1911 89.1124 56.0943 89.416 57.4821C89.5674 58.1744 89.7102 58.7474 89.8392 59.1511C89.9029 59.3507 89.9679 59.5237 90.0348 59.6523C90.0675 59.7153 90.1093 59.7847 90.1631 59.8433C90.2093 59.8934 90.3181 59.9944 90.4855 59.9944V59.3048ZM89.1016 52.0074C88.5536 48.7193 88.4167 45.4976 88.4167 44.3062H87.7271C87.7271 45.5283 87.8661 48.7887 88.4214 52.1207L89.1016 52.0074ZM88.0719 43.9614H84.9688V44.6509H88.0719V43.9614Z" fill="#D3D3D3"/>
<path d="M237.215 187.519L237.744 189.626C237.744 189.626 235.646 191.722 235.841 192.357C236.036 192.992 236.786 195.385 236.786 195.385" stroke="#D3D3D3" stroke-width="0.689591" stroke-miterlimit="10"/>
<path d="M254.641 196.805L237.742 189.628" stroke="#D3D3D3" stroke-width="0.689591" stroke-miterlimit="10"/>
<path d="M238.039 203.094C238.039 203.094 240.48 211.178 241.065 211.325C241.651 211.472 243.848 210.497 244.337 210.789C244.826 211.082 245.859 214.635 245.859 214.635C245.859 214.635 245.858 216.152 246.196 216.688C246.534 217.225 246.484 217.516 247.411 217.516C248.339 217.516 250.146 217.468 250.488 217.516C250.83 217.565 250.83 217.565 250.83 217.565L252.733 216.932" stroke="#D3D3D3" stroke-width="0.689591" stroke-miterlimit="10"/>
<path d="M251.853 199.477C251.853 199.477 250.47 200.582 249.244 201.31C249.014 201.447 248.79 201.571 248.582 201.671C247.264 202.304 243.602 202.81 243.602 203.093C243.602 203.377 245.383 208.837 245.383 208.837H248.141C248.63 208.789 250.435 208.024 250.485 207.359C250.533 206.693 249.753 202.547 249.656 202.157C249.557 201.767 249.014 201.445 249.014 201.445" stroke="#D3D3D3" stroke-width="0.689591" stroke-miterlimit="10"/>
<path d="M221.391 231.9C221.391 231.9 232.815 229.022 234.523 228.584C236.231 228.146 244.237 226.048 244.237 226.048" stroke="#D3D3D3" stroke-width="0.689591" stroke-miterlimit="10"/>
<path d="M224.023 243.7C224.023 243.7 238.963 239.068 239.45 238.873C239.937 238.678 242.281 237.653 242.281 237.653C242.476 237.117 241.695 233.948 241.597 233.168C241.498 232.388 240.316 227.075 240.316 227.075" stroke="#D3D3D3" stroke-width="0.689591" stroke-miterlimit="10"/>
<path d="M229.836 229.771C229.836 229.771 230.275 232.778 230.617 233.948C230.959 235.117 231.397 236.874 231.397 236.874" stroke="#D3D3D3" stroke-width="0.689591" stroke-miterlimit="10"/>
<path d="M241.602 233.168C241.602 233.168 243.31 232.68 243.895 232.437C244.481 232.194 245.385 231.559 245.385 231.559" stroke="#D3D3D3" stroke-width="0.689591" stroke-miterlimit="10"/>
<path d="M224.462 248.965C224.462 248.965 218.164 250.281 217.431 251.256C216.699 252.23 215.675 252.914 216.113 254.473C216.552 256.032 219.629 264.762 219.629 264.762" stroke="#D3D3D3" stroke-width="0.689591" stroke-miterlimit="10"/>
<path d="M228.566 262.714C228.566 262.714 211.09 267.103 207.184 267.882C203.279 268.662 192.148 272.952 192.148 272.952" stroke="#D3D3D3" stroke-width="0.689591" stroke-miterlimit="10"/>
<path d="M203.227 255.011L207.182 267.882" stroke="#D3D3D3" stroke-width="0.689591" stroke-miterlimit="10"/>
<path d="M191.317 257.936L191.707 273.246L193.073 272.953C193.073 272.953 194.244 278.412 193.073 281.778C191.902 285.142 191.512 294.064 190.681 297.137C189.852 300.209 190.681 302.549 190.681 302.549" stroke="#D3D3D3" stroke-width="0.689591" stroke-miterlimit="10"/>
<path d="M227.828 258.594C227.828 258.594 237.378 255.156 239.942 254.645C242.505 254.134 247.558 252.524 247.558 252.524V260.423" stroke="#D3D3D3" stroke-width="0.689591" stroke-miterlimit="10"/>
<path d="M234.898 256.146C234.898 256.146 235.764 259.251 235.838 260.423C235.911 261.592 235.911 261.592 235.911 261.592L236.937 263.347" stroke="#D3D3D3" stroke-width="0.689591" stroke-miterlimit="10"/>
<path d="M129.709 237.092C129.709 237.092 127.319 235.264 126.586 234.606C125.854 233.948 116.847 234.679 112.014 234.606C107.181 234.533 104.911 234.386 104.252 233.363C103.593 232.34 100.298 211.935 100.004 209.156C99.7106 206.376 99.1985 201.623 98.9067 195.918C98.613 190.213 99.2005 189.848 99.7125 189.263C100.225 188.679 103.374 188.459 104.984 188.459C106.596 188.459 113.332 187.289 115.894 187.289C115.894 187.289 116.992 193.799 117.724 199.137C118.457 204.475 121.386 227.44 121.386 227.44L121.752 231.609L112.963 232.414" stroke="#D3D3D3" stroke-width="0.689591" stroke-miterlimit="10"/>
<path d="M107.75 188.181C107.75 188.181 108.28 198.842 109.159 204.693C110.038 210.545 112.966 234.61 112.966 234.61" stroke="#D3D3D3" stroke-width="0.689591" stroke-miterlimit="10"/>
<path d="M117 194.171C117 194.171 123.218 193.283 123.731 193.283C124.243 193.283 124.757 193.577 124.828 194.599C124.902 195.624 126.952 212.299 127.246 213.833C127.539 215.37 128.051 217.564 127.978 219.172C127.905 220.781 127.758 227.656 127.466 228.461C127.172 229.265 127.101 231.02 126.148 231.313C125.195 231.606 121.754 231.606 121.754 231.606" stroke="#D3D3D3" stroke-width="0.689591" stroke-miterlimit="10"/>
<path d="M127.977 219.174L130.321 217.346C130.759 216.761 131.347 215.152 131.347 215.152" stroke="#D3D3D3" stroke-width="0.689591" stroke-miterlimit="10"/>
<path d="M157.781 267.834C157.781 267.834 163.343 265.738 165.492 266.03C167.64 266.323 170.568 266.537 173.302 266.918C176.037 267.298 176.037 267.298 176.037 267.298C176.037 267.298 182.286 269.345 183.847 269.735C185.409 270.125 192.147 272.953 192.147 272.953" stroke="#D3D3D3" stroke-width="0.689591" stroke-miterlimit="10"/>
<path d="M158.305 248.965C158.305 248.965 158.66 247.697 159.831 247.697C161.002 247.697 164.127 247.112 164.127 247.112" stroke="#D3D3D3" stroke-width="0.689591" stroke-miterlimit="10"/>
<path d="M225.832 179.633C225.832 179.633 225.49 182.314 225.832 182.802C226.174 183.29 227.248 184.166 227.248 184.166C227.737 184.166 229.103 183.387 229.103 183.192C229.103 182.997 229.347 182.802 229.347 182.802L230.126 181.582" stroke="#D3D3D3" stroke-width="0.689591" stroke-miterlimit="10"/>
<path d="M208.742 272.124C208.742 272.124 216.356 269.61 218.406 269.623C220.458 269.637 229.831 267.834 229.831 267.834" stroke="#D3D3D3" stroke-width="0.689591" stroke-miterlimit="10"/>
<path d="M234.899 286.898C234.899 286.898 221.925 286.46 217.53 286.02C213.136 285.582 200.688 285.435 200.688 285.435" stroke="#D3D3D3" stroke-width="0.689591" stroke-miterlimit="10"/>
<path d="M219.141 269.584C219.141 269.584 221.143 273.624 221.386 275.068C221.63 276.511 222.314 278.412 224.022 277.974C225.73 277.536 231.701 275.764 231.701 275.764" stroke="#D3D3D3" stroke-width="0.689591" stroke-miterlimit="10"/>
<path d="M232.922 276.804C232.922 276.804 238.101 274.813 242.317 273.981C246.534 273.147 250.049 272.124 250.049 272.124V268.467L256.2 266V263.347" stroke="#D3D3D3" stroke-width="0.689591" stroke-miterlimit="10"/>
<path d="M240.82 267.834C240.82 267.834 241.358 270.15 241.601 271.209C241.845 272.271 242.316 273.981 242.316 273.981" stroke="#D3D3D3" stroke-width="0.689591" stroke-miterlimit="10"/>
<path d="M238.797 275.067C238.797 275.067 240.627 283.97 241.605 287.628C242.581 291.285 244.681 295.38 245.389 297.428C246.096 299.476 249.319 322.44 249.319 322.44V324.781" stroke="#D3D3D3" stroke-width="0.689591" stroke-miterlimit="10"/>
<path d="M223.396 335.729C223.396 335.729 222.801 341.75 222.801 345.334C222.801 348.918 223.68 358.425 222.801 359.01C221.922 359.594 221.922 361.057 221.922 361.057" stroke="#D3D3D3" stroke-width="0.689591" stroke-miterlimit="10"/>
<path d="M180.626 317.854C180.626 317.854 178.282 323.758 177.111 325.416C176.837 325.804 176.462 326.198 176.038 326.595C174.657 327.896 172.775 329.241 172.326 330.585C171.741 332.339 171.155 338.58 170.52 342.579C169.886 346.578 168.421 356.718 168.127 357.986C167.833 359.254 167.443 361.008 166.077 361.059C164.711 361.109 163.441 361.01 162.073 361.059C160.707 361.107 159.047 361.79 159.047 361.79" stroke="#D3D3D3" stroke-width="0.689591" stroke-miterlimit="10"/>
<path d="M168.32 359.253C168.32 359.253 170.077 359.351 171.25 359.253C172.421 359.154 177.206 355.059 177.206 352.816C177.206 350.574 179.16 335.946 179.16 334.288C179.16 332.631 179.258 331.461 179.16 330.193C179.061 328.925 176.037 326.594 176.037 326.594" stroke="#D3D3D3" stroke-width="0.689591" stroke-miterlimit="10"/>
<path d="M177.008 353.716C177.008 353.716 179.845 353.54 183.75 353.716C187.655 353.891 197.126 355.159 197.126 355.159" stroke="#D3D3D3" stroke-width="0.689591" stroke-miterlimit="10"/>
<path d="M190.267 320.792C190.267 320.792 188.149 323.172 188.05 324.781C187.952 326.391 187.952 335.265 188.05 339.165C188.149 343.066 189.023 355.255 189.123 356.133C189.223 357.012 187.979 359.839 187.979 359.839" stroke="#D3D3D3" stroke-width="0.689591" stroke-miterlimit="10"/>
<path d="M250.041 271.466C250.041 271.466 249.456 274.025 250.041 276.805C250.627 279.584 254.948 296.259 254.948 296.259" stroke="#D3D3D3" stroke-width="0.689591" stroke-miterlimit="10"/>
<path d="M239.312 277.579C239.312 277.579 241.62 276.658 243.56 276.805C245.5 276.952 250.125 277.183 250.125 277.183" stroke="#D3D3D3" stroke-width="0.689591" stroke-miterlimit="10"/>
<path d="M240.82 283.862C240.82 283.862 242.285 283.606 244.225 283.532C246.166 283.459 251.654 283.378 251.654 283.378" stroke="#D3D3D3" stroke-width="0.689591" stroke-miterlimit="10"/>
<path d="M242.609 290.152C242.609 290.152 245.429 289.384 247.516 289.494C249.603 289.604 253.412 289.818 253.412 289.818C253.412 289.818 259.234 288.983 260.699 288.545C262.163 288.106 267.143 288.361 267.143 288.361V294.03" stroke="#D3D3D3" stroke-width="0.689591" stroke-miterlimit="10"/>
<path d="M249.844 275.45C249.844 275.45 253.171 276.075 254.586 275.928C256 275.782 258.344 275.166 262.445 276.791C266.546 278.416 267.668 279.537 269.181 280.755C270.694 281.973 271.817 283.758 273.38 283.621C274.942 283.484 276.553 283.38 276.553 283.38" stroke="#D3D3D3" stroke-width="0.689591" stroke-miterlimit="10"/>
<path d="M260.297 318.2V325.528" stroke="#D3D3D3" stroke-width="0.689591" stroke-miterlimit="10"/>
<path d="M273.969 326.508L275.329 300.842C275.329 300.842 275.329 302.5 281.579 302.889C287.828 303.279 292.025 302.889 294.858 303.669C297.689 304.449 299.057 305.815 299.057 305.815L298.568 323.465L298.3 328.479" stroke="#D3D3D3" stroke-width="0.689591" stroke-miterlimit="10"/>
<path d="M198.748 149.814C194.381 149.756 184.508 149.848 179.957 150.676C174.268 151.71 165.82 153.262 164.441 153.089C163.062 152.917 161.511 153.089 160.131 153.089C158.752 153.089 155.821 154.124 153.235 154.296C150.649 154.468 146.857 154.641 147.029 156.02C147.202 157.399 149.27 158.433 153.753 158.951C158.235 159.468 162.373 159.813 164.786 158.951C167.2 158.089 169.958 158.089 174.958 158.261C179.957 158.433 189.784 157.054 190.991 157.054C191.756 157.054 192.591 157.054 193.232 157.142M202.024 165.157C201.334 164.525 199.714 162.916 198.748 161.537C197.542 159.813 194.611 157.744 194.094 157.399C193.905 157.273 193.601 157.193 193.232 157.142M193.232 157.142L201.162 158.261C203.116 154.928 207.644 147.779 210.127 145.848C213.23 143.435 223.401 131.884 224.953 131.022C226.504 130.16 227.022 128.264 228.401 128.609C229.78 128.953 235.642 132.401 236.848 132.746C238.055 133.091 239.434 133.953 240.296 133.091C241.158 132.229 244.779 127.229 246.158 126.712C247.537 126.195 249.261 126.023 249.778 125.333C250.295 124.643 257.536 118.092 258.053 115.851C258.57 113.61 257.536 114.127 258.915 112.748C260.294 111.369 265.466 106.542 266.846 105.163C268.225 103.783 275.465 94.8187 277.879 92.4051C279.81 90.4743 282.017 88.0377 282.879 87.0608M272.707 81.0269C268.857 84.3599 260.984 91.3018 260.294 92.4051C259.432 93.7843 256.846 95.3359 258.915 97.7494C260.984 100.163 270.983 108.61 272.707 109.99C274.431 111.369 274.603 112.748 275.638 112.748C276.672 112.748 274.776 113.955 278.569 109.99C282.361 106.025 286.844 100.163 287.878 99.301C288.912 98.439 294.429 92.9223 294.946 92.4051C295.281 92.0705 296.554 90.7258 297.877 89.7246M305.463 87.0608C304.198 87.463 301.325 88.3365 299.946 88.6124C299.337 88.7341 298.6 89.1782 297.877 89.7246M297.877 89.7246L300.808 92.4051M307.704 98.2666C306.382 97.692 303.773 96.2668 303.911 95.1635C304.083 93.7843 303.221 93.4395 303.911 92.9223C304.601 92.4051 305.463 91.5431 305.463 91.1983C305.463 90.9225 303.509 89.1296 302.532 88.2676M255.812 89.3019L259.605 92.9223" stroke="#D3D3D3" stroke-width="0.689591" stroke-linecap="round"/>
<path d="M286.958 303.089C286.958 303.089 285.979 313.715 285.784 316.738C285.588 319.76 284.898 327.348 284.898 327.348" stroke="#D3D3D3" stroke-width="0.689591" stroke-miterlimit="10"/>
<path d="M286.375 309.521C286.375 309.521 288.416 309.425 289.295 309.521C290.174 309.618 292.225 311.179 292.225 311.179" stroke="#D3D3D3" stroke-width="0.689591" stroke-miterlimit="10"/>
<path d="M292.906 321.865C292.906 321.865 295.055 321.223 296.031 321.223C297.007 321.223 298.615 321.865 298.615 321.865" stroke="#D3D3D3" stroke-width="0.689591" stroke-miterlimit="10"/>
<path d="M252.367 351.062L262.746 351.776C262.746 351.776 262.151 357.01 261.857 359.058C261.563 361.106 261.096 363.447 262.746 363.447C264.396 363.447 265.471 363.545 265.861 362.082C266.251 360.619 265.861 352.095 265.861 352.095" stroke="#D3D3D3" stroke-width="0.689591" stroke-miterlimit="10"/>
<path d="M258.93 333.217L260.296 330.681L262.746 331.169C262.746 331.169 261.629 336.826 261.37 337.897C261.111 338.97 262.25 341.115 262.151 343.162C262.053 345.21 261.37 349.245 261.37 349.245" stroke="#D3D3D3" stroke-width="0.689591" stroke-miterlimit="10"/>
<path d="M297.398 332.436L308.628 333.119V332.436" stroke="#D3D3D3" stroke-width="0.689591" stroke-miterlimit="10"/>
<path d="M270.234 352.542L271.819 342.481L296.345 344.543" stroke="#D3D3D3" stroke-width="0.689591" stroke-miterlimit="10"/>
<path d="M298.617 305.445C298.617 305.445 300.136 303.477 301.502 303.573C302.868 303.672 313.903 304.293 314.683 305.445C315.464 306.596 314.782 319.858 314.683 322.686C314.585 325.513 313.903 330.633 313.903 330.633" stroke="#D3D3D3" stroke-width="0.689591" stroke-miterlimit="10"/>
<path d="M307.655 304.048L306.117 329.319" stroke="#D3D3D3" stroke-width="0.689591" stroke-miterlimit="10"/>
<path d="M320.148 323.759V330.682" stroke="#D3D3D3" stroke-width="0.689591" stroke-miterlimit="10"/>
<path opacity="0.4" d="M211.374 210.398L222.213 247.844L194.825 256.328L180.62 253.987L177.25 228.39L182.67 225.317L187.65 223.416L185.598 216.688L211.374 210.398Z" fill="#D3D3D3"/>
<path d="M245.383 324.782C245.383 324.782 262.054 325.513 268.792 326.098C275.528 326.683 303.649 328.584 308.775 329.755C313.902 330.925 321.371 330.633 321.371 330.633C321.371 330.633 340.556 337.946 341.729 339.264C342.9 340.58 341.729 346.723 341.729 349.796C341.729 352.868 340.849 365.886 340.849 365.886" stroke="#D3D3D3" stroke-width="1.37918" stroke-miterlimit="10"/>
<path d="M179.164 317.614C179.164 317.614 186.096 318.492 192.15 321.709C198.204 324.926 212.26 330.485 218.413 333.557C224.566 336.63 234.866 339.554 238.796 341.457C242.727 343.359 250.342 345.332 250.342 345.332" stroke="#D3D3D3" stroke-width="1.37918" stroke-miterlimit="10"/>
<path d="M187.165 99.684C187.165 99.684 178.279 98.8059 175.986 96.1734C173.692 93.541 167.1 79.7919 165.002 78.0356C162.903 76.2794 151.431 76.0613 143.374 75.5499C135.32 75.0384 132.244 76.1346 125.067 75.5499C117.89 74.9651 104.417 70.6497 101.635 69.1868C98.8518 67.7238 96.875 65.3828 96.875 65.3828" stroke="#D3D3D3" stroke-width="1.37918" stroke-miterlimit="10" stroke-linecap="round" stroke-linejoin="round"/>
<path d="M202.548 173.26C202.663 170.444 202.686 163.985 201.858 160.675C200.824 156.537 164.276 5.34433 163.586 0" stroke="#D3D3D3" stroke-width="1.37918"/>
<path d="M202.203 162.054C202.72 163.26 204.237 166.26 206.168 168.605C208.099 170.949 209.961 172.34 210.651 172.742" stroke="#D3D3D3" stroke-width="1.37918"/>
<path d="M125.072 75.5498C125.072 75.5498 124.682 84.3755 125.951 86.9096C127.221 89.4455 129.368 93.4425 129.368 93.4425C129.368 93.4425 130.589 91.7364 132.151 92.1262C133.712 92.5161 134.006 93.346 136.35 93.4425C138.694 93.5409 143.917 91.9796 144.356 91.8329C144.794 91.6862 146.796 90.8081 146.796 90.8081" stroke="#D3D3D3" stroke-width="1.37918" stroke-miterlimit="10" stroke-linecap="round" stroke-linejoin="round"/>
<path d="M132.586 76.9106C132.586 76.9106 134.886 79.2556 136.399 80.1337C137.912 81.0118 140.182 83.405 142.026 84.4993C143.869 85.5935 144.65 86.6184 146.262 86.8615C147.873 87.1047 151.632 87.0082 152.07 86.8615C152.509 86.7149 153.046 85.7402 153.046 85.7402" stroke="#D3D3D3" stroke-width="1.37918" stroke-miterlimit="10"/>
<path d="M126.758 88.2178C126.758 88.2178 132.09 86.4576 132.578 86.0678C133.067 85.6779 132.677 82.1191 132.578 79.9247C132.48 77.7304 132.818 75.5244 132.818 75.5244" stroke="#D3D3D3" stroke-width="1.37918" stroke-miterlimit="10"/>
<path d="M132.578 86.0654L134.646 93.0307" stroke="#D3D3D3" stroke-width="1.37918" stroke-miterlimit="10"/>
<path d="M132.734 85.2521C132.734 85.2521 135.131 85.5937 135.521 85.2521C135.911 84.9105 136.4 83.5943 136.4 83.5943L136.914 80.4658" stroke="#D3D3D3" stroke-width="1.37918" stroke-miterlimit="10"/>
<path d="M174.473 48.5862C174.473 48.5862 168.713 48.8796 167.005 48.8062C165.296 48.7329 163.49 48.4415 161.244 48.1481C158.999 47.8567 157.924 48.1481 156.363 47.7583C154.802 47.3684 144.89 41.2736 143.329 40.9088C141.766 40.5421 133.516 40.0558 129.122 39.9573C124.729 39.8589 119.357 39.4691 116.088 39.2259C112.818 38.9827 107.838 38.9094 107.838 38.9094L97.8304 41.6634L90.752 40.9069L90.0196 36.0067C90.0196 36.0067 88.8969 36.3464 87.8708 36.6397L85.235 38.1991C85.235 38.1991 85.235 42.5396 85.235 43.1244C85.235 43.7111 84.6012 44.5391 84.6012 44.5391L84.3074 44.6858C84.3074 44.6858 84.3074 44.6858 84.1606 44.8324C84.0137 44.9791 78.9373 45.8071 78.9373 45.8071L65.655 42.3292M0.835938 40.9069C3.24941 40.3734 8.55906 39.2376 10.4898 38.9617C12.9033 38.6169 24.4535 35.3414 30.832 34.8242C35.9348 34.4104 41.6927 35.8634 43.9337 36.6417L65.655 42.3292M42.8994 47.0644C45.8875 48.0988 52.6223 50.4434 55.6563 51.5468C59.4489 52.926 61.1729 53.9604 61.8624 52.7536C62.4141 51.7881 64.6207 45.4017 65.655 42.3292" stroke="#D3D3D3" stroke-width="1.37918" stroke-miterlimit="10" stroke-linecap="round" stroke-linejoin="round"/>
<path d="M140.453 75.5502C140.453 75.5502 141.479 58.9486 141.624 54.9266C141.771 50.9046 140.453 40.5928 140.453 40.5928" stroke="#D3D3D3" stroke-width="1.37918" stroke-miterlimit="10" stroke-linecap="round" stroke-linejoin="round"/>
<path d="M142.484 84.7869L143.864 79.8887" stroke="#D3D3D3" stroke-width="1.37918" stroke-miterlimit="10" stroke-linecap="round" stroke-linejoin="round"/>
<path d="M250.336 340.824C250.336 340.824 255.412 340.044 257.463 339.751C259.513 339.457 261.271 338.776 262.638 338.776C264.004 338.776 265.372 338.874 265.957 339.264C266.543 339.654 266.738 342.19 266.738 342.19L266.153 347.943C266.153 347.943 264.982 349.503 263.907 349.211C262.833 348.918 261.271 349.186 261.368 349.248C261.467 349.31 261.368 351.552 261.368 351.552C261.368 351.552 263.809 352.041 266.738 352.137C269.668 352.235 271.523 352.917 273.378 353.112C275.233 353.307 277.088 352.137 279.919 352.527C282.75 352.917 290.855 353.891 292.221 354.185C293.587 354.478 295.757 355.063 295.757 355.063L294.758 366.764" stroke="#D3D3D3" stroke-width="1.37918" stroke-miterlimit="10"/>
<path d="M297.399 328.479L295.289 360.606" stroke="#D3D3D3" stroke-width="1.37918" stroke-miterlimit="10"/>
<path d="M130.633 236.385C130.633 236.385 138.053 234.044 141.568 233.948C145.083 233.851 147.623 234.338 148.208 235.995C148.794 237.653 156.995 258.522 157.288 259.593C157.582 260.666 157.972 273.246 157.972 273.246L159.242 280.852C159.242 280.852 158.948 283.679 160.268 287.774C161.588 291.87 161.976 295.674 164.125 295.818C166.274 295.965 170.52 296.257 170.52 296.257" stroke="#D3D3D3" stroke-width="1.37918" stroke-miterlimit="10"/>
<path d="M142.156 233.936C142.156 233.936 147.623 231.804 150.066 232.779C152.506 233.753 154.07 236.386 155.436 240.579C156.802 244.773 160.22 254.427 160.22 254.427L170.961 251.306C170.961 251.306 171.156 251.208 171.546 251.208C171.937 251.208 176.232 249.843 176.623 250.038C177.013 250.233 178.576 251.891 178.576 251.891V254.718L177.991 267.834L179.747 273.981C179.747 273.981 179.747 281.34 179.747 288.8C179.747 296.259 180.627 308.838 180.627 310.448C180.627 312.057 179.162 317.616 179.162 317.616C179.162 317.616 174.182 317.469 173.45 315.13C172.717 312.789 170.52 302.112 170.52 296.261C170.52 290.409 169.154 284.706 169.104 283.39C169.055 282.074 169.104 276.077 169.104 276.077L168.253 266.35" stroke="#D3D3D3" stroke-width="1.37918" stroke-miterlimit="10"/>
<path d="M321.367 330.633L341.824 308.742" stroke="#D3D3D3" stroke-width="1.37918" stroke-miterlimit="10"/>
<path fill-rule="evenodd" clip-rule="evenodd" d="M-28.1172 129.804C-29.6311 137.561 -33.5552 153.09 -38.4713 159.468C-44.85 167.743 -62.4346 177.742 -76.3988 172.915C-90.363 168.088 -102.948 160.158 -100.362 147.917C-98.9434 141.202 -97.0058 137.548 -95.3179 134.365C-93.9292 131.747 -92.7096 129.447 -92.087 126.023C-91.7141 123.972 -91.1019 122.123 -90.492 120.281C-88.8462 115.311 -87.2183 110.394 -90.363 101.715C-92.056 97.0423 -94.4139 91.758 -96.6532 86.7395C-100.115 78.9818 -103.293 71.8595 -103.293 68.6144C-103.293 63.2701 -98.8105 44.8235 -92.087 42.7548C-88.6401 41.6942 -83.0183 41.6757 -76.4294 41.6541C-70.1662 41.6336 -63.0291 41.6101 -56.0559 40.686C-42.0833 38.8342 -32.7136 35.3386 -22.8099 31.6437C-22.5715 31.5548 -22.3327 31.4657 -22.0935 31.3765C-11.9221 27.5837 4.28333 25.8598 11.524 25.8598C16.7149 25.8598 26.1586 27.4546 34.1386 28.8022C37.2899 29.3344 40.2129 29.8281 42.5556 30.1697C50.8307 31.3765 58.9334 32.0661 64.795 28.9629C70.6565 25.8598 89.7926 19.3087 95.8266 18.6191C98.9352 18.2638 100.625 18.6407 101.793 18.901C102.891 19.1459 103.527 19.2877 104.446 18.6191C105.639 17.7516 109.083 16.7477 111.817 15.9506C113.43 15.4804 114.796 15.0821 115.308 14.8263C115.614 14.673 116.142 14.4517 116.787 14.1811C119.045 13.2343 122.74 11.6848 123.41 10.3439C124.1 8.96476 125.766 5.05708 126.513 3.27563L120.824 2.06885C120.307 4.19509 118.204 8.82684 113.928 10.3439C111.206 11.31 106.514 11.5602 101.997 11.8012C97.6471 12.0332 93.4585 12.2566 91.3442 13.1023C90.4021 13.4791 88.6117 14.3007 86.3149 15.3547C78.104 19.1225 63.4223 25.8598 57.899 25.8598C50.8307 25.8598 27.0398 21.5498 24.4539 20.6878C22.6149 20.0748 22.0837 20.0721 19.6361 20.0597C18.642 20.0547 17.3317 20.048 15.4892 19.9982C9.11047 19.8258 -10.8877 21.7222 -14.1632 22.7566C-15.5726 23.2016 -19.6308 24.8275 -24.3743 26.728C-30.6557 29.2445 -38.1387 32.2425 -42.2641 33.6176C-49.5048 36.0312 -76.3988 36.5484 -80.8812 36.5484C-81.472 36.5484 -82.1646 36.5005 -82.9394 36.4469C-88.0424 36.0938 -96.7072 35.4943 -103.293 46.7199C-110.878 59.6497 -109.499 67.2352 -107.948 70.6832C-107.375 71.9564 -106.379 75.4864 -105.211 79.6239C-103.217 86.6908 -100.723 95.5298 -98.9829 97.922C-96.2246 101.715 -93.1214 107.749 -94.1558 111.541C-94.3019 112.077 -94.4308 112.616 -94.5668 113.185C-95.3937 116.644 -96.4828 121.199 -103.293 132.746C-111.223 146.193 -108.81 162.744 -98.9829 169.984C-89.1563 177.225 -78.8124 181.707 -65.193 179.466C-51.5735 177.225 -36.9197 168.777 -33.6442 163.433C-31.4564 159.864 -30.4222 156.832 -29.3089 153.569C-28.7553 151.947 -28.1821 150.267 -27.4379 148.435C-25.729 144.228 -23.8845 135.303 -23.0684 130.793L-22.8592 130.828L-23.0795 126.439C-23.0795 126.439 -22.8593 101.427 -10.9962 81.8997C0.866798 62.3723 9.21478 52.3288 28.5465 53.84C46.8317 55.2693 57.0588 64.9659 60.9023 68.61C61.1223 68.8185 61.3214 69.0073 61.4998 69.1735C63.892 71.4043 67.8824 79.134 69.8892 83.2017L69.7874 83.2061C69.7874 83.2061 71.7642 87.3015 71.9111 90.1539C72.0579 93.0064 72.3497 106.975 72.3497 106.975C72.3497 106.975 72.9604 125.796 72.7652 129.793C72.57 133.792 72.2763 146.468 72.2763 146.468C72.2763 146.468 76.4754 167.044 76.7672 169.091C76.8543 169.698 76.9412 170.228 77.0229 170.727C77.2169 171.91 77.3819 172.916 77.4513 174.356C77.4715 174.776 77.4998 175.422 77.5347 176.216L77.536 176.247L77.5361 176.249L77.5362 176.252C77.6714 179.334 77.9028 184.607 78.1353 187.619C78.4291 191.423 81.0649 218.921 81.5518 222.333C81.78 223.932 83.027 229.643 84.3458 235.682C85.8413 242.53 87.429 249.801 87.7278 251.977C88.0408 254.255 89.4766 258.991 90.6902 262.747C91.1637 264.211 91.6032 265.526 91.929 266.488L91.8545 266.546L92.7917 269.661C92.7917 269.661 101.799 289.553 103.557 294.82C103.899 295.845 104.268 296.853 104.627 297.836C106.114 301.906 107.447 305.552 106.104 308.204C105.539 309.32 104.548 310.284 103.607 311.2C101.774 312.985 100.13 314.585 102.193 316.761C103.646 318.293 104.767 318.732 105.526 319.029C106.397 319.369 106.79 319.523 106.659 320.93C106.565 321.935 105.451 323.132 103.998 324.692C101.646 327.218 98.4082 330.696 97.186 335.851C95.2092 344.188 96.9657 359.109 96.9657 359.109L128.819 361.523C128.819 361.523 126.622 344.19 125.963 340.241C125.642 338.315 125.791 337.746 125.951 337.133C126.12 336.49 126.301 335.799 125.963 333.44C125.625 331.075 123.958 328.42 122.445 326.01C121.011 323.727 119.716 321.664 119.82 320.276C119.903 319.177 120.377 318.837 120.804 318.531C121.484 318.043 122.043 317.643 120.692 314.386C118.495 309.088 106.454 277.103 106.104 274.445L105.754 271.788L105.43 267.398L105.67 267.384L105.413 267.165L105.389 266.839L104.933 266.757L102.35 264.557V255.391L99.0304 252.856L96.9801 249.443L95.8091 246.128L89.3414 202.783L84.7287 163.437C84.7287 163.437 84.7287 153.416 84.2166 148.736C83.7045 144.056 83.2639 138.862 83.2639 138.862C83.4108 138.131 83.6292 136.668 83.6292 136.668L80.5528 127.161C80.5528 127.161 80.1876 108.732 80.2591 103.612C80.3224 99.1925 80.2764 93.7398 79.9334 90.6369L80.2287 90.8007C80.2287 90.8007 79.9209 89.4004 79.2786 87.1716C78.7769 84.9896 78.2088 82.8452 78.2088 82.8452L77.9176 82.8576C75.0058 74.3679 69.2303 61.6527 59.9616 58.1361C54.671 56.1288 50.6849 53.98 47.1357 52.0667C41.1061 48.8163 36.3373 46.2456 28.5755 46.2031C21.0265 46.1617 15.2998 48.4757 11.2375 50.1171C8.66435 51.1567 6.75903 51.9266 5.48138 51.6572C2.18663 50.9624 -4.62316 52.8016 -8.57879 58.1361C-10.3802 60.5653 -10.6318 63.4657 -10.9112 66.6848C-11.2452 70.5345 -11.6188 74.8399 -14.7296 79.3406C-20.4418 87.6047 -24.8342 103.037 -25.9337 110.569C-26.9616 117.611 -27.9879 128.425 -28.1172 129.804Z" fill="#EAF2F5"/>
<path d="M237.684 290.554C236.473 286.8 234.173 278.177 232.965 273.586C232.965 273.586 229.388 261.738 228.362 258.08C227.336 254.423 223.75 239.504 223.017 236.799C222.285 234.093 217.013 213.323 216.134 209.885C215.255 206.448 210.685 191.309 210.37 189.406C210.055 187.505 209.763 184.396 209.817 183.281C209.871 182.165 210.476 178.929 210.476 178.929L208.627 179.734C208.627 179.734 208.261 181.598 208.059 182.677C207.856 183.756 207.912 184.194 207.912 184.194C207.912 184.194 206.41 181.231 206.263 180.866C206.116 180.502 205.367 179.477 205.367 179.477L203.68 179.423C203.68 179.423 206.905 185.969 207.637 188.017C208.37 190.065 212.544 204.034 212.544 204.034C212.544 204.034 221.33 238.042 222.868 244.038C224.407 250.034 228.36 264.297 229.093 266.929C229.483 268.336 230.084 270.139 230.557 271.513C230.557 271.513 241.056 310.606 245.495 329.605C249.076 344.927 255.746 370.999 255.746 370.999H258.43C258.434 371.004 242.306 304.89 237.684 290.554Z" fill="#D3D3D3"/>
<path d="M238.789 296.844C238.789 296.844 240.596 295.089 245.794 295.747C250.994 296.405 273.572 297.722 283.725 298.405C293.878 299.088 305.986 298.99 307.842 297.722C309.697 296.454 312.236 293.236 312.821 291.579C313.407 289.921 326.783 262.033 328.833 257.644C330.884 253.255 338.207 240.823 339.964 236.874C341.72 232.925 344.807 228.724 344.807 228.724" stroke="#D3D3D3" stroke-width="2.39786" stroke-miterlimit="10"/>
<path d="M202.851 177.453C202.162 176.074 202.334 171.764 206.299 171.074C208.416 170.706 210.54 172.212 210.954 174.005C211.471 176.246 210.092 179.005 207.851 179.522C205.61 180.039 203.541 178.832 202.851 177.453Z" stroke="#D3D3D3" stroke-width="2.06877"/>
<path d="M202.712 173.777C199.092 177.915 190.092 181.397 184.438 183.604C177.369 186.362 147.889 195.155 139.614 205.154C131.339 215.153 126.34 224.462 126.512 251.184C126.65 272.561 126.57 280.664 126.512 282.043C126.57 289.399 128.305 309.42 134.787 330.659C141.269 351.899 144.614 364.679 145.476 368.414M192.196 180.417C193.747 179.785 197.368 179.122 199.436 179.122C201.505 179.122 203.746 179.122 204.608 179.122M210.125 178.087C211.792 177.225 215.642 175.536 217.711 175.674C220.297 175.846 230.296 179.811 232.882 181.363C234.95 182.604 499.466 289.054 583.021 323.074M209.78 172.053C211.985 173.088 216.761 175.26 218.228 175.674" stroke="#D3D3D3" stroke-width="2.06877"/>
<path opacity="0.7" d="M253.241 70.2271C254.376 70.2271 255.343 70.6433 256.143 71.4757C256.943 72.308 257.343 73.3134 257.343 74.4917C257.343 75.6808 256.943 76.6915 256.143 77.5239C255.354 78.3454 254.387 78.7562 253.241 78.7562C251.9 78.7562 250.879 78.2211 250.176 77.1509V81.7884H248.766V70.4379H250.176V71.8324C250.879 70.7622 251.9 70.2271 253.241 70.2271ZM253.062 77.3941C253.873 77.3941 254.554 77.1185 255.106 76.5672C255.657 75.9942 255.933 75.3024 255.933 74.4917C255.933 73.6701 255.657 72.9837 255.106 72.4323C254.554 71.8702 253.873 71.5892 253.062 71.5892C252.241 71.5892 251.554 71.8702 251.003 72.4323C250.452 72.9837 250.176 73.6701 250.176 74.4917C250.176 75.3024 250.452 75.9942 251.003 76.5672C251.554 77.1185 252.241 77.3941 253.062 77.3941ZM265.091 74.2484H259.173V72.8864H265.091V74.2484ZM273.079 69.2218H268.701V67.9894H273.079V69.2218ZM268.766 76.1294L273.258 70.4379H274.393V78.5454H272.998V72.8539L268.507 78.5454H267.372V70.4379H268.766V76.1294ZM282.15 73.8106V70.4379H283.561V78.5454H282.15V75.1565H277.951V78.5454H276.54V70.4379H277.951V73.8106H282.15ZM286.6 78.7238C286.309 78.7238 286.06 78.6211 285.854 78.4157C285.649 78.2103 285.546 77.9617 285.546 77.6698C285.546 77.3779 285.649 77.1293 285.854 76.9239C286.06 76.7185 286.309 76.6158 286.6 76.6158C286.903 76.6158 287.152 76.7185 287.346 76.9239C287.552 77.1293 287.654 77.3779 287.654 77.6698C287.654 77.9617 287.552 78.2103 287.346 78.4157C287.152 78.6211 286.903 78.7238 286.6 78.7238ZM293.251 72.8701C293.251 71.227 293.819 69.8379 294.954 68.7029C296.089 67.557 297.478 66.9841 299.121 66.9841C300.764 66.9841 302.153 67.557 303.288 68.7029C304.434 69.8379 305.007 71.227 305.007 72.8701C305.007 74.5025 304.434 75.8915 303.288 77.0374C302.153 78.1833 300.764 78.7562 299.121 78.7562C297.478 78.7562 296.089 78.1833 294.954 77.0374C293.819 75.8807 293.251 74.4917 293.251 72.8701ZM303.499 72.8701C303.499 71.6162 303.078 70.5676 302.234 69.7244C301.413 68.8704 300.375 68.4434 299.121 68.4434C297.878 68.4434 296.835 68.8704 295.992 69.7244C295.159 70.5784 294.743 71.627 294.743 72.8701C294.743 74.1025 295.159 75.1511 295.992 76.0159C296.835 76.859 297.878 77.2806 299.121 77.2806C300.375 77.2806 301.413 76.859 302.234 76.0159C303.078 75.1511 303.499 74.1025 303.499 72.8701ZM311.149 70.2271C312.284 70.2271 313.252 70.6433 314.052 71.4757C314.852 72.308 315.252 73.3134 315.252 74.4917C315.252 75.6808 314.852 76.6915 314.052 77.5239C313.263 78.3454 312.295 78.7562 311.149 78.7562C309.809 78.7562 308.787 78.2211 308.085 77.1509V81.7884H306.674V70.4379H308.085V71.8324C308.787 70.7622 309.809 70.2271 311.149 70.2271ZM310.971 77.3941C311.782 77.3941 312.463 77.1185 313.014 76.5672C313.565 75.9942 313.841 75.3024 313.841 74.4917C313.841 73.6701 313.565 72.9837 313.014 72.4323C312.463 71.8702 311.782 71.5892 310.971 71.5892C310.15 71.5892 309.463 71.8702 308.912 72.4323C308.36 72.9837 308.085 73.6701 308.085 74.4917C308.085 75.3024 308.36 75.9942 308.912 76.5672C309.463 77.1185 310.15 77.3941 310.971 77.3941ZM323.535 70.4379H325.043V78.5454H323.664V72.6594L321.086 76.8104H320.908L318.33 72.6594V78.5454H316.935V70.4379H318.443L320.989 74.5403L323.535 70.4379ZM333.909 71.8324V70.4379H335.32V78.5454H333.909V77.1509C333.217 78.2211 332.196 78.7562 330.845 78.7562C329.699 78.7562 328.731 78.3454 327.942 77.5239C327.142 76.6915 326.742 75.6808 326.742 74.4917C326.742 73.3134 327.142 72.308 327.942 71.4757C328.742 70.6433 329.71 70.2271 330.845 70.2271C332.196 70.2271 333.217 70.7622 333.909 71.8324ZM331.023 77.3941C331.845 77.3941 332.531 77.1185 333.082 76.5672C333.634 75.9942 333.909 75.3024 333.909 74.4917C333.909 73.6701 333.634 72.9837 333.082 72.4323C332.531 71.8702 331.845 71.5892 331.023 71.5892C330.212 71.5892 329.531 71.8702 328.98 72.4323C328.429 72.9837 328.153 73.6701 328.153 74.4917C328.153 75.3024 328.429 75.9942 328.98 76.5672C329.531 77.1185 330.212 77.3941 331.023 77.3941ZM343.068 73.8106V70.4379H344.478V78.5454H343.068V75.1565H338.868V78.5454H337.457V70.4379H338.868V73.8106H343.068Z" fill="#D3D3D3"/>
<path opacity="0.7" d="M71.5455 57.6817C72.6806 57.6817 73.6481 58.0979 74.448 58.9302C75.248 59.7626 75.6479 60.7679 75.6479 61.9462C75.6479 63.1353 75.248 64.1461 74.448 64.9785C73.6589 65.8 72.6914 66.2108 71.5455 66.2108C70.2051 66.2108 69.1836 65.6757 68.4809 64.6055V69.243H67.0702V57.8925H68.4809V59.287C69.1836 58.2168 70.2051 57.6817 71.5455 57.6817ZM71.3672 64.8487C72.1779 64.8487 72.859 64.5731 73.4103 64.0218C73.9616 63.4488 74.2372 62.757 74.2372 61.9462C74.2372 61.1247 73.9616 60.4382 73.4103 59.8869C72.859 59.3248 72.1779 59.0437 71.3672 59.0437C70.5456 59.0437 69.8592 59.3248 69.3079 59.8869C68.7566 60.4382 68.4809 61.1247 68.4809 61.9462C68.4809 62.757 68.7566 63.4488 69.3079 64.0218C69.8592 64.5731 70.5456 64.8487 71.3672 64.8487ZM83.3957 61.703H77.4772V60.341H83.3957V61.703ZM91.384 56.6764H87.0059V55.444H91.384V56.6764ZM87.0708 63.584L91.5624 57.8925H92.6974V66H91.3029V60.3085L86.8114 66H85.6763V57.8925H87.0708V63.584ZM100.455 61.2652V57.8925H101.866V66H100.455V62.6111H96.2555V66H94.8448V57.8925H96.2555V61.2652H100.455ZM104.905 66.1784C104.613 66.1784 104.365 66.0757 104.159 65.8703C103.954 65.6649 103.851 65.4163 103.851 65.1244C103.851 64.8325 103.954 64.5839 104.159 64.3785C104.365 64.1731 104.613 64.0704 104.905 64.0704C105.208 64.0704 105.456 64.1731 105.651 64.3785C105.856 64.5839 105.959 64.8325 105.959 65.1244C105.959 65.4163 105.856 65.6649 105.651 65.8703C105.456 66.0757 105.208 66.1784 104.905 66.1784ZM113.664 59.1086H116.42C117.393 59.1086 118.226 59.4437 118.918 60.1139C119.599 60.7734 119.939 61.5841 119.939 62.5462C119.939 63.5191 119.599 64.3407 118.918 65.0109C118.258 65.6703 117.426 66 116.42 66H112.156V54.6495H118.966V56.0764H113.664V59.1086ZM113.664 64.5893H116.42C116.983 64.5893 117.458 64.3947 117.847 64.0056C118.247 63.6164 118.447 63.1299 118.447 62.5462C118.447 61.9733 118.247 61.4922 117.847 61.1031C117.458 60.7139 116.983 60.5193 116.42 60.5193H113.664V64.5893ZM128.338 64.9785C127.516 65.8 126.506 66.2108 125.306 66.2108C124.106 66.2108 123.095 65.8 122.273 64.9785C121.452 64.1569 121.041 63.1462 121.041 61.9462C121.041 60.7463 121.452 59.7356 122.273 58.914C123.095 58.0925 124.106 57.6817 125.306 57.6817C126.506 57.6817 127.516 58.0925 128.338 58.914C129.17 59.7464 129.586 60.7571 129.586 61.9462C129.586 63.1353 129.17 64.1461 128.338 64.9785ZM125.306 64.8325C126.116 64.8325 126.797 64.5569 127.349 64.0056C127.9 63.4542 128.176 62.7678 128.176 61.9462C128.176 61.1247 127.9 60.4382 127.349 59.8869C126.797 59.3356 126.116 59.06 125.306 59.06C124.506 59.06 123.83 59.3356 123.279 59.8869C122.727 60.4382 122.452 61.1247 122.452 61.9462C122.452 62.7678 122.727 63.4542 123.279 64.0056C123.83 64.5569 124.506 64.8325 125.306 64.8325ZM135.725 57.6817C136.86 57.6817 137.827 58.0979 138.627 58.9302C139.427 59.7626 139.827 60.7679 139.827 61.9462C139.827 63.1353 139.427 64.1461 138.627 64.9785C137.838 65.8 136.871 66.2108 135.725 66.2108C134.384 66.2108 133.363 65.6757 132.66 64.6055V69.243H131.249V57.8925H132.66V59.287C133.363 58.2168 134.384 57.6817 135.725 57.6817ZM135.546 64.8487C136.357 64.8487 137.038 64.5731 137.59 64.0218C138.141 63.4488 138.416 62.757 138.416 61.9462C138.416 61.1247 138.141 60.4382 137.59 59.8869C137.038 59.3248 136.357 59.0437 135.546 59.0437C134.725 59.0437 134.038 59.3248 133.487 59.8869C132.936 60.4382 132.66 61.1247 132.66 61.9462C132.66 62.757 132.936 63.4488 133.487 64.0218C134.038 64.5731 134.725 64.8487 135.546 64.8487ZM144.364 61.8165L148.369 66H146.618L142.921 62.157V66H141.51V57.8925H142.921V61.476L146.424 57.8925H148.24L144.364 61.8165ZM151.076 63.584L155.567 57.8925H156.702V66H155.308V60.3085L150.816 66H149.681V57.8925H151.076V63.584Z" fill="#D3D3D3"/>
<path d="M84.2495 211.596C84.1962 211.165 84.3093 210.781 84.5887 210.444C84.868 210.108 85.232 209.916 85.6806 209.869C86.1333 209.822 86.5368 209.934 86.8912 210.205C87.241 210.472 87.4428 210.824 87.4965 211.259C87.5594 211.768 87.4036 212.177 87.0291 212.487L88.7946 212.303L88.8608 212.839L84.5396 213.288L84.4735 212.752L85.0043 212.697C84.564 212.472 84.3123 212.106 84.2495 211.596ZM86.9863 211.381C86.9483 211.073 86.8114 210.825 86.5757 210.637C86.3317 210.45 86.0554 210.373 85.7467 210.405C85.434 210.438 85.1856 210.569 85.0016 210.801C84.8134 211.032 84.7383 211.302 84.7764 211.61C84.8149 211.922 84.9541 212.172 85.194 212.359C85.4297 212.547 85.704 212.624 86.0167 212.592C86.3254 212.56 86.5758 212.428 86.7681 212.196C86.9521 211.964 87.0249 211.693 86.9863 211.381ZM85.4835 206.248L85.8022 208.828C86.0672 208.747 86.2657 208.599 86.3978 208.386C86.5257 208.173 86.5714 207.919 86.5349 207.623C86.4847 207.217 86.298 206.937 85.9748 206.783L86.1778 206.3C86.6803 206.556 86.9686 206.983 87.0426 207.583C87.1025 208.067 86.9994 208.481 86.7334 208.825C86.4581 209.162 86.088 209.354 85.6229 209.402C85.1538 209.451 84.7484 209.341 84.4069 209.073C84.0612 208.806 83.859 208.434 83.8002 207.957C83.7444 207.505 83.8595 207.121 84.1455 206.805C84.4228 206.485 84.7878 206.301 85.2405 206.254C85.3187 206.246 85.3997 206.244 85.4835 206.248ZM84.3064 207.905C84.3413 208.188 84.451 208.418 84.6353 208.594C84.8191 208.766 85.0517 208.861 85.333 208.877L85.079 206.82C84.8006 206.895 84.5944 207.03 84.4603 207.227C84.3262 207.424 84.2749 207.65 84.3064 207.905ZM84.8508 203.706L83.3755 203.859L83.3093 203.323L86.3958 203.002L86.462 203.538L85.3508 203.654C85.4888 203.893 85.5765 204.165 85.614 204.468C85.6632 204.867 85.6063 205.183 85.4434 205.416C85.2804 205.649 85.0179 205.784 84.6557 205.822L83.631 205.928L83.5648 205.393L84.5587 205.289C84.785 205.266 84.9423 205.189 85.0305 205.059C85.114 204.926 85.1403 204.734 85.1094 204.483C85.0744 204.2 84.9882 203.941 84.8508 203.706ZM84.5688 201.269L85.9736 199.583L86.0558 200.248L84.7661 201.804L86.2291 201.652L86.2953 202.188L83.2088 202.509L83.1426 201.973L84.5069 201.831L82.9783 200.642L82.8932 199.953L84.5688 201.269ZM83.0765 197.082L82.5456 197.138L82.4795 196.602L85.566 196.281L85.6322 196.817L85.1013 196.872C85.5411 197.093 85.7928 197.459 85.8561 197.973C85.9099 198.408 85.7989 198.792 85.5231 199.124C85.2437 199.461 84.8777 199.653 84.425 199.7C83.9764 199.746 83.575 199.634 83.2206 199.363C82.8662 199.092 82.6623 198.741 82.6091 198.31C82.5457 197.797 82.7015 197.388 83.0765 197.082ZM85.3292 197.959C85.2907 197.647 85.1536 197.397 84.9178 197.209C84.6739 197.023 84.3975 196.945 84.0889 196.977C83.7761 197.01 83.5277 197.142 83.3437 197.373C83.1556 197.605 83.0807 197.876 83.1193 198.188C83.1573 198.496 83.2962 198.744 83.5361 198.931C83.7718 199.119 84.0461 199.196 84.3589 199.164C84.6675 199.132 84.918 199 85.1102 198.768C85.2943 198.536 85.3673 198.267 85.3292 197.959ZM84.8673 190.622L84.938 191.194L81.7156 191.529L85.2118 193.412L85.2688 193.874L80.9476 194.323L80.8769 193.75L84.1054 193.414L80.6031 191.533L80.5461 191.071L84.8673 190.622ZM83.7931 186.124L81.2189 186.392L81.1528 185.856L84.2393 185.535L84.7602 189.755L81.6737 190.075L81.6075 189.54L84.1817 189.272L84.0205 187.966L81.4463 188.234L81.3801 187.698L83.9543 187.43L83.7931 186.124ZM83.1527 184.28L80.7753 182.799L80.7221 182.368L83.8086 182.047L83.874 182.577L81.7072 182.802L84.0847 184.283L84.1379 184.714L81.0513 185.035L80.9859 184.505L83.1527 184.28ZM80.3118 179.045L80.2411 178.472L83.3276 178.151L83.3923 178.675L81.1515 178.908L82.8527 179.723L82.861 179.791L81.4017 180.934L83.6425 180.701L83.7079 181.231L80.6213 181.552L80.5506 180.979L81.993 179.85L80.3118 179.045Z" fill="white"/>
<rect width="7.44975" height="58.664" transform="translate(183.234 98.2344) rotate(-13.1253)" fill="#F8F9FA"/>
<path d="M188.996 103.409L190.737 103.69L190.889 104.338L188.274 103.903C187.572 103.788 187.168 103.426 187.061 102.816L187.668 102.676C187.693 102.852 187.749 102.986 187.837 103.078C187.925 103.173 188.052 103.241 188.217 103.282L190.264 101.674L190.416 102.322L188.996 103.409ZM189.982 104.699L190.419 106.56L188.068 107.104L187.925 106.498L189.694 106.088L189.541 105.44L188.756 105.622C188.032 105.789 187.627 105.535 187.54 104.858L188.11 104.726C188.108 104.858 188.152 104.949 188.243 104.997C188.333 105.046 188.468 105.049 188.647 105.008L189.982 104.699ZM188.712 108.327C188.602 108.352 188.499 108.335 188.402 108.275C188.305 108.214 188.244 108.13 188.218 108.02C188.192 107.91 188.21 107.807 188.27 107.711C188.33 107.614 188.414 107.553 188.524 107.528C188.634 107.502 188.737 107.52 188.834 107.58C188.931 107.64 188.992 107.725 189.018 107.835C189.043 107.944 189.026 108.048 188.966 108.144C188.906 108.24 188.821 108.301 188.712 108.327ZM191.096 112.465L189.686 114L189.516 113.277L190.777 111.91L189.277 112.257L189.125 111.608L190.625 111.261L188.885 110.588L188.717 109.869L190.664 110.623L192.02 109.154L192.188 109.873L190.95 111.186L192.417 110.846L192.569 111.495L191.102 111.834L192.797 112.468L192.967 113.191L191.096 112.465ZM192.208 115.43L192.486 115.366L192.628 115.972L190.277 116.516L190.134 115.91L190.412 115.846C190.14 115.717 189.966 115.488 189.889 115.159C189.815 114.846 189.871 114.549 190.056 114.268C190.246 113.99 190.514 113.81 190.862 113.73C191.207 113.65 191.526 113.693 191.82 113.86C192.114 114.03 192.298 114.271 192.372 114.584C192.449 114.913 192.395 115.195 192.208 115.43ZM190.568 114.63C190.474 114.781 190.45 114.95 190.494 115.138C190.538 115.326 190.635 115.467 190.786 115.561C190.941 115.657 191.116 115.683 191.31 115.638C191.504 115.593 191.648 115.494 191.741 115.34C191.838 115.189 191.864 115.019 191.82 114.831C191.776 114.643 191.677 114.503 191.523 114.409C191.372 114.316 191.199 114.291 191.005 114.336C190.81 114.381 190.665 114.479 190.568 114.63ZM192.793 116.677L193.23 118.538L190.879 119.082L190.737 118.476L192.505 118.066L192.353 117.418L191.567 117.6C190.843 117.767 190.438 117.513 190.352 116.836L190.921 116.704C190.919 116.837 190.963 116.927 191.054 116.975C191.144 117.024 191.279 117.027 191.458 116.986L192.793 116.677ZM192.47 121.701L192.054 119.929C191.778 120.076 191.683 120.331 191.768 120.694C191.822 120.926 191.942 121.083 192.127 121.166L191.959 121.72C191.569 121.566 191.321 121.263 191.215 120.812C191.124 120.424 191.169 120.085 191.349 119.795C191.529 119.506 191.797 119.32 192.155 119.237C192.506 119.156 192.828 119.203 193.121 119.38C193.412 119.554 193.601 119.824 193.688 120.19C193.769 120.538 193.717 120.849 193.53 121.124C193.344 121.404 193.076 121.585 192.725 121.667C192.659 121.682 192.574 121.693 192.47 121.701ZM192.523 119.811L192.804 121.009C192.949 120.939 193.05 120.842 193.107 120.716C193.164 120.594 193.176 120.461 193.142 120.317C193.104 120.154 193.03 120.029 192.92 119.942C192.814 119.854 192.681 119.811 192.523 119.811ZM194.015 121.881L194.452 123.742L192.1 124.286L191.958 123.68L193.726 123.271L193.574 122.622L192.789 122.804C192.064 122.972 191.659 122.717 191.573 122.04L192.142 121.908C192.14 122.041 192.185 122.131 192.275 122.18C192.366 122.228 192.501 122.232 192.679 122.19L194.015 121.881ZM194.722 126.141L195 126.077L195.142 126.683L192.791 127.228L192.648 126.621L192.926 126.557C192.654 126.428 192.48 126.2 192.403 125.871C192.329 125.557 192.385 125.26 192.57 124.98C192.76 124.701 193.028 124.522 193.376 124.441C193.721 124.361 194.04 124.405 194.334 124.571C194.628 124.741 194.812 124.983 194.886 125.296C194.963 125.625 194.908 125.907 194.722 126.141ZM193.082 125.342C192.988 125.492 192.963 125.662 193.008 125.85C193.052 126.038 193.149 126.178 193.3 126.272C193.455 126.369 193.63 126.394 193.824 126.349C194.018 126.304 194.162 126.205 194.255 126.051C194.352 125.9 194.378 125.731 194.334 125.543C194.29 125.355 194.191 125.214 194.036 125.121C193.886 125.027 193.713 125.003 193.518 125.048C193.324 125.093 193.179 125.191 193.082 125.342ZM195.202 129.895L193.805 131.551L193.63 130.804L194.897 129.272L193.354 129.629L193.202 128.98L196.494 128.218L196.646 128.867L195.193 129.203L196.911 129.995L197.086 130.742L195.202 129.895ZM195.029 132.201L196.623 132.996L196.729 133.447L194.378 133.991L194.239 133.399L195.575 133.09L193.98 132.295L193.874 131.843L196.225 131.299L196.364 131.891L195.029 132.201ZM196.031 135.646C195.97 135.911 195.812 136.073 195.555 136.133C195.348 136.181 195.159 136.135 194.987 135.996C194.816 135.858 194.696 135.641 194.627 135.347C194.515 134.87 194.627 134.503 194.963 134.243L195.37 134.669C195.174 134.794 195.106 134.98 195.164 135.227C195.19 135.34 195.232 135.421 195.29 135.47C195.349 135.523 195.416 135.541 195.491 135.523C195.635 135.49 195.686 135.381 195.642 135.196L195.564 134.862L196.081 134.742L196.141 134.996C196.184 135.178 196.277 135.252 196.421 135.219C196.49 135.203 196.539 135.163 196.567 135.101C196.595 135.038 196.599 134.963 196.579 134.875C196.531 134.675 196.399 134.552 196.18 134.507L196.347 133.952C196.75 134.048 197.002 134.311 197.103 134.744C197.166 135.013 197.147 135.242 197.046 135.431C196.946 135.622 196.8 135.74 196.609 135.785C196.38 135.838 196.187 135.791 196.031 135.646ZM197.498 137.968L197.775 137.904L197.918 138.51L195.566 139.054L195.424 138.448L195.701 138.384C195.43 138.255 195.255 138.026 195.178 137.697C195.105 137.384 195.161 137.087 195.346 136.806C195.535 136.528 195.804 136.348 196.152 136.268C196.497 136.188 196.816 136.232 197.11 136.398C197.404 136.568 197.588 136.809 197.661 137.123C197.739 137.452 197.684 137.733 197.498 137.968ZM195.857 137.168C195.764 137.319 195.739 137.488 195.783 137.676C195.827 137.864 195.925 138.005 196.076 138.099C196.231 138.195 196.405 138.221 196.6 138.176C196.794 138.131 196.938 138.032 197.03 137.878C197.127 137.727 197.153 137.557 197.109 137.369C197.065 137.181 196.966 137.041 196.812 136.948C196.661 136.854 196.488 136.829 196.294 136.874C196.1 136.919 195.954 137.017 195.857 137.168ZM197.993 138.829L198.481 140.911L197.898 141.046L197.726 140.313L195.958 140.722L195.815 140.116L197.584 139.707L197.409 138.964L197.993 138.829ZM196.946 143.622C196.651 143.439 196.463 143.172 196.381 142.821C196.298 142.47 196.348 142.148 196.531 141.855C196.713 141.562 196.98 141.375 197.331 141.293C197.679 141.213 198 141.264 198.294 141.447C198.592 141.632 198.782 141.899 198.864 142.247C198.946 142.594 198.894 142.917 198.709 143.214C198.524 143.511 198.26 143.699 197.915 143.779C197.567 143.86 197.244 143.807 196.946 143.622ZM197.05 142.186C196.956 142.336 196.931 142.502 196.973 142.684C197.016 142.866 197.113 143.004 197.264 143.098C197.415 143.191 197.584 143.217 197.772 143.173C197.96 143.129 198.101 143.032 198.195 142.882C198.289 142.731 198.314 142.565 198.271 142.384C198.229 142.202 198.132 142.064 197.981 141.97C197.828 141.88 197.658 141.857 197.473 141.899C197.288 141.942 197.147 142.038 197.05 142.186ZM198.44 145.891C198.385 146.135 198.232 146.286 197.981 146.344C197.78 146.39 197.603 146.359 197.448 146.249C197.294 146.14 197.187 145.961 197.129 145.714L196.839 144.478L199.19 143.934L199.458 145.076C199.516 145.32 199.5 145.525 199.41 145.691C199.323 145.857 199.179 145.963 198.978 146.009C198.772 146.057 198.592 146.018 198.44 145.891ZM198.947 145.135L198.825 144.618L198.402 144.716L198.523 145.233C198.564 145.405 198.655 145.475 198.796 145.442C198.937 145.409 198.987 145.307 198.947 145.135ZM197.485 144.928L197.625 145.525C197.666 145.7 197.762 145.77 197.913 145.736C197.978 145.72 198.025 145.685 198.051 145.629C198.078 145.573 198.082 145.505 198.063 145.423L197.922 144.827L197.485 144.928ZM199.895 148.184L200.173 148.12L200.315 148.726L197.964 149.27L197.821 148.664L198.099 148.6C197.827 148.471 197.653 148.242 197.576 147.913C197.502 147.6 197.558 147.303 197.744 147.022C197.933 146.744 198.201 146.564 198.549 146.484C198.894 146.404 199.213 146.447 199.507 146.614C199.801 146.784 199.985 147.025 200.059 147.338C200.136 147.667 200.082 147.949 199.895 148.184ZM198.255 147.384C198.161 147.535 198.137 147.704 198.181 147.892C198.225 148.08 198.322 148.221 198.473 148.315C198.628 148.411 198.803 148.437 198.997 148.392C199.192 148.347 199.335 148.247 199.428 148.094C199.525 147.943 199.551 147.773 199.507 147.585C199.463 147.397 199.364 147.256 199.21 147.163C199.059 147.069 198.886 147.045 198.692 147.09C198.497 147.135 198.352 147.233 198.255 147.384Z" fill="#D3D3D3"/>
<rect width="7.44975" height="52.4577" transform="translate(209.562 205.156) rotate(-13.8554)" fill="#F8F9FA"/>
<path d="M214.646 207.245L216.391 207.503L216.552 208.15L213.93 207.748C213.228 207.642 212.819 207.285 212.705 206.677L213.309 206.528C213.336 206.704 213.394 206.837 213.483 206.928C213.573 207.022 213.7 207.089 213.866 207.128L215.892 205.493L216.053 206.14L214.646 207.245ZM215.649 208.521L216.11 210.377L213.765 210.951L213.615 210.346L215.378 209.915L215.218 209.268L214.435 209.46C213.713 209.637 213.304 209.387 213.209 208.711L213.777 208.572C213.777 208.705 213.822 208.795 213.913 208.842C214.005 208.889 214.139 208.891 214.318 208.848L215.649 208.521ZM214.425 212.165C214.315 212.192 214.212 212.176 214.114 212.117C214.017 212.058 213.955 211.974 213.927 211.865C213.9 211.755 213.916 211.652 213.975 211.555C214.034 211.458 214.118 211.396 214.227 211.369C214.337 211.342 214.44 211.358 214.538 211.417C214.635 211.476 214.697 211.56 214.725 211.67C214.752 211.779 214.736 211.882 214.677 211.979C214.618 212.077 214.534 212.139 214.425 212.165ZM216.862 216.273L215.472 217.826L215.292 217.104L216.536 215.722L215.04 216.088L214.88 215.441L216.375 215.075L214.627 214.425L214.45 213.708L216.406 214.436L217.743 212.951L217.921 213.668L216.699 214.996L218.162 214.637L218.322 215.284L216.859 215.642L218.563 216.254L218.742 216.975L216.862 216.273ZM218.012 219.223L218.288 219.156L218.438 219.76L216.094 220.334L215.944 219.73L216.221 219.662C215.948 219.537 215.77 219.31 215.689 218.982C215.611 218.67 215.663 218.372 215.845 218.089C216.031 217.808 216.297 217.626 216.644 217.541C216.988 217.456 217.308 217.496 217.603 217.659C217.9 217.824 218.087 218.064 218.164 218.376C218.246 218.704 218.195 218.986 218.012 219.223ZM216.361 218.445C216.27 218.597 216.247 218.766 216.293 218.953C216.34 219.141 216.439 219.281 216.591 219.372C216.747 219.467 216.922 219.49 217.116 219.443C217.31 219.395 217.452 219.294 217.543 219.139C217.638 218.987 217.662 218.817 217.616 218.63C217.569 218.442 217.468 218.303 217.313 218.212C217.161 218.12 216.988 218.098 216.794 218.145C216.6 218.192 216.456 218.292 216.361 218.445ZM218.613 220.463L219.073 222.318L216.729 222.892L216.579 222.288L218.342 221.856L218.181 221.209L217.398 221.401C216.676 221.578 216.268 221.329 216.173 220.653L216.74 220.514C216.74 220.646 216.786 220.736 216.877 220.783C216.968 220.831 217.103 220.832 217.281 220.789L218.613 220.463ZM218.353 225.49L217.915 223.724C217.641 223.874 217.548 224.13 217.638 224.493C217.696 224.724 217.817 224.88 218.003 224.96L217.843 225.516C217.451 225.367 217.199 225.068 217.087 224.618C216.991 224.23 217.031 223.891 217.208 223.599C217.384 223.308 217.65 223.118 218.007 223.031C218.357 222.945 218.679 222.989 218.974 223.162C219.268 223.332 219.461 223.599 219.551 223.965C219.637 224.311 219.589 224.623 219.406 224.9C219.224 225.183 218.958 225.367 218.608 225.453C218.542 225.469 218.457 225.482 218.353 225.49ZM218.382 223.6L218.678 224.795C218.823 224.723 218.923 224.624 218.977 224.498C219.033 224.375 219.043 224.241 219.008 224.098C218.967 223.935 218.892 223.811 218.781 223.726C218.673 223.64 218.54 223.598 218.382 223.6ZM219.9 225.651L220.361 227.506L218.016 228.08L217.866 227.476L219.629 227.044L219.469 226.398L218.686 226.59C217.964 226.766 217.555 226.517 217.461 225.841L218.028 225.702C218.028 225.835 218.073 225.925 218.165 225.972C218.256 226.019 218.391 226.021 218.569 225.977L219.9 225.651ZM220.662 229.902L220.938 229.834L221.088 230.439L218.744 231.013L218.594 230.408L218.871 230.341C218.598 230.215 218.42 229.989 218.339 229.661C218.262 229.348 218.314 229.051 218.495 228.768C218.681 228.487 218.947 228.304 219.294 228.219C219.638 228.135 219.958 228.174 220.254 228.337C220.55 228.503 220.737 228.742 220.815 229.054C220.896 229.382 220.845 229.665 220.662 229.902ZM219.011 229.123C218.92 229.275 218.897 229.445 218.944 229.632C218.99 229.819 219.089 229.959 219.242 230.051C219.398 230.145 219.573 230.169 219.766 230.121C219.96 230.074 220.102 229.973 220.193 229.818C220.288 229.665 220.312 229.496 220.266 229.308C220.219 229.121 220.118 228.981 219.963 228.89C219.811 228.798 219.638 228.776 219.444 228.824C219.25 228.871 219.106 228.971 219.011 229.123ZM221.189 233.649L219.814 235.323L219.629 234.578L220.876 233.03L219.338 233.407L219.178 232.76L222.46 231.956L222.62 232.603L221.172 232.958L222.899 233.727L223.084 234.472L221.189 233.649ZM221.045 235.957L222.65 236.732L222.762 237.181L220.418 237.755L220.271 237.165L221.603 236.839L219.998 236.064L219.886 235.614L222.231 235.04L222.377 235.631L221.045 235.957ZM222.091 239.389C222.035 239.655 221.878 239.819 221.622 239.882C221.415 239.932 221.226 239.889 221.053 239.753C220.879 239.616 220.756 239.401 220.684 239.108C220.566 238.633 220.673 238.264 221.005 238L221.418 238.421C221.224 238.548 221.158 238.735 221.219 238.981C221.247 239.094 221.29 239.174 221.349 239.223C221.408 239.275 221.475 239.291 221.55 239.273C221.694 239.238 221.743 239.128 221.697 238.944L221.615 238.611L222.13 238.485L222.193 238.738C222.238 238.919 222.333 238.992 222.476 238.957C222.545 238.94 222.593 238.9 222.621 238.837C222.648 238.774 222.651 238.699 222.629 238.611C222.58 238.411 222.445 238.29 222.226 238.248L222.386 237.692C222.79 237.782 223.045 238.042 223.152 238.473C223.219 238.742 223.203 238.971 223.104 239.161C223.006 239.354 222.862 239.474 222.671 239.52C222.443 239.576 222.25 239.533 222.091 239.389ZM223.588 241.692L223.865 241.625L224.015 242.229L221.67 242.803L221.52 242.199L221.797 242.131C221.524 242.006 221.347 241.779 221.265 241.451C221.188 241.139 221.24 240.841 221.421 240.558C221.607 240.277 221.873 240.094 222.22 240.009C222.564 239.925 222.884 239.965 223.18 240.127C223.476 240.293 223.663 240.532 223.741 240.845C223.822 241.173 223.771 241.455 223.588 241.692ZM221.937 240.914C221.846 241.065 221.823 241.235 221.87 241.422C221.916 241.61 222.016 241.749 222.168 241.841C222.324 241.936 222.499 241.959 222.692 241.912C222.886 241.864 223.029 241.763 223.119 241.608C223.214 241.456 223.238 241.286 223.192 241.098C223.145 240.911 223.045 240.772 222.889 240.681C222.737 240.589 222.564 240.566 222.37 240.614C222.177 240.661 222.032 240.761 221.937 240.914ZM224.094 242.547L224.609 244.623L224.027 244.765L223.846 244.034L222.083 244.466L221.933 243.862L223.696 243.43L223.512 242.69L224.094 242.547ZM223.108 247.353C222.811 247.174 222.62 246.909 222.533 246.559C222.446 246.21 222.492 245.887 222.671 245.591C222.849 245.296 223.114 245.105 223.464 245.019C223.811 244.934 224.132 244.981 224.429 245.161C224.729 245.342 224.922 245.606 225.008 245.953C225.094 246.3 225.047 246.623 224.866 246.922C224.685 247.222 224.423 247.414 224.079 247.498C223.732 247.583 223.408 247.534 223.108 247.353ZM223.194 245.915C223.102 246.067 223.079 246.234 223.124 246.415C223.169 246.596 223.267 246.732 223.419 246.824C223.571 246.916 223.741 246.939 223.929 246.893C224.116 246.847 224.256 246.749 224.348 246.597C224.439 246.445 224.463 246.279 224.418 246.098C224.373 245.917 224.274 245.78 224.122 245.688C223.968 245.6 223.798 245.579 223.614 245.624C223.429 245.669 223.289 245.766 223.194 245.915ZM224.631 249.603C224.579 249.847 224.428 250 224.178 250.061C223.978 250.11 223.8 250.081 223.644 249.974C223.488 249.866 223.379 249.689 223.318 249.442L223.012 248.21L225.356 247.636L225.639 248.774C225.699 249.018 225.686 249.223 225.598 249.391C225.513 249.557 225.371 249.665 225.171 249.714C224.965 249.764 224.785 249.727 224.631 249.603ZM225.128 248.84L225 248.324L224.578 248.428L224.706 248.943C224.749 249.115 224.84 249.184 224.981 249.149C225.122 249.115 225.171 249.012 225.128 248.84ZM223.664 248.652L223.812 249.247C223.855 249.422 223.952 249.491 224.102 249.454C224.167 249.438 224.213 249.402 224.239 249.346C224.265 249.29 224.268 249.221 224.248 249.14L224.1 248.545L223.664 248.652ZM226.116 251.877L226.392 251.809L226.542 252.413L224.198 252.987L224.048 252.383L224.324 252.315C224.051 252.19 223.874 251.963 223.793 251.636C223.715 251.323 223.767 251.025 223.949 250.742C224.135 250.462 224.401 250.279 224.748 250.194C225.092 250.11 225.412 250.149 225.707 250.312C226.004 250.478 226.191 250.717 226.268 251.029C226.35 251.357 226.299 251.64 226.116 251.877ZM224.465 251.098C224.373 251.25 224.351 251.419 224.397 251.607C224.444 251.794 224.543 251.934 224.695 252.026C224.851 252.12 225.026 252.143 225.22 252.096C225.414 252.049 225.556 251.947 225.647 251.793C225.742 251.64 225.766 251.47 225.719 251.283C225.673 251.095 225.572 250.956 225.417 250.865C225.265 250.773 225.092 250.751 224.898 250.798C224.704 250.846 224.56 250.946 224.465 251.098Z" fill="#D3D3D3"/>
<path d="M233.403 169.122C234.955 169.122 236.851 169.294 239.954 169.122L242.023 170.501V174.122C242.023 174.466 240.472 175.156 237.713 175.673C234.955 176.19 238.403 177.742 237.369 178.259C236.334 178.776 235.3 177.052 234.265 177.052C233.231 177.052 231.679 177.397 231.162 177.052C230.645 176.708 231.162 176.018 231.162 175.156C231.162 174.294 230.128 172.053 229.955 171.536C229.783 171.018 231.852 169.122 233.403 169.122Z" fill="#EAF2F5"/>
<rect x="-117.773" y="377.896" width="78.9582" height="713.037" transform="rotate(-90 -117.773 377.896)" fill="url(#paint0_linear_1986_1816)"/>
<rect x="545.961" y="-33.1006" width="67.9247" height="663.731" transform="rotate(90 545.961 -33.1006)" fill="url(#paint1_linear_1986_1816)"/>
<path d="M239.183 84.9695C239.183 95.2392 226.733 101.874 225.238 102.634C225.144 102.681 225.039 102.681 224.945 102.634C223.449 101.874 211 95.2392 211 84.9695C211 76.5878 217.828 71 225.091 71C232.607 71 239.183 76.5878 239.183 84.9695Z" fill="#E36414"/>
<g clip-path="url(#clip1_1986_1816)">
<path d="M225.065 84.5705C226.494 83.4716 227.422 81.7449 227.422 79.7962H227.406L227.422 79.7935V78.4402H225.18V79.7962L224.058 79.7908V78.4375H221.817V79.7935L220.695 79.7962V78.4402H218.453V93.3206H220.695V82.0507H224.419C224.034 82.5622 223.528 82.9763 222.939 83.2388V86.5597C226.647 86.5597 229.666 89.5937 229.666 93.3233H231.908C231.908 89.0822 228.991 85.5313 225.065 84.5705Z" fill="white"/>
<path d="M230.115 82.048C231.106 82.048 231.91 81.2398 231.91 80.2427C231.91 79.2457 231.106 78.4375 230.115 78.4375C229.124 78.4375 228.32 79.2457 228.32 80.2427C228.32 81.2398 229.124 82.048 230.115 82.048Z" fill="white"/>
</g>
<path d="M207.915 115.255L210.831 118.97H209.731L206.981 115.483V118.97H206.027V115.483L203.276 118.97H202.187L205.093 115.255L202.291 111.706H203.38L206.027 115.037V111.706H206.981V115.037L209.628 111.706H210.728L207.915 115.255ZM213.76 115.234L217.07 118.97H215.887L212.753 115.483V118.97H211.788V111.706H212.753V114.985L215.783 111.706H216.966L213.76 115.234ZM220.524 111.706H223.16C223.824 111.706 224.381 111.931 224.83 112.38C225.28 112.83 225.505 113.384 225.505 114.041C225.505 114.698 225.28 115.252 224.83 115.701C224.381 116.151 223.824 116.376 223.16 116.376H221.489V118.97H220.524V111.706ZM221.489 115.473H223.16C223.568 115.473 223.9 115.338 224.156 115.068C224.419 114.785 224.55 114.442 224.55 114.041C224.55 113.626 224.419 113.283 224.156 113.013C223.893 112.744 223.561 112.609 223.16 112.609H221.489V115.473ZM232.124 118.97H231.159V113.553L227.423 118.97H226.645V111.706H227.61V117.133L231.346 111.706H232.124V118.97ZM234.643 114.56H236.407C237.03 114.56 237.563 114.774 238.006 115.203C238.441 115.625 238.659 116.144 238.659 116.76C238.659 117.382 238.441 117.908 238.006 118.337C237.584 118.759 237.051 118.97 236.407 118.97H233.678V111.706H238.037V112.619H234.643V114.56ZM234.643 118.067H236.407C236.767 118.067 237.072 117.943 237.321 117.694C237.577 117.445 237.705 117.133 237.705 116.76C237.705 116.393 237.577 116.085 237.321 115.836C237.072 115.587 236.767 115.463 236.407 115.463H234.643V118.067ZM245.408 118.97H244.381L243.789 117.341H240.52L239.929 118.97H238.901L241.61 111.706H242.699L245.408 118.97ZM242.149 112.858L240.852 116.438H243.457L242.149 112.858ZM245.147 111.706H250.387V112.619H248.239V118.97H247.284V112.619H245.147V111.706Z" fill="#E36414"/>
<path d="M218.626 127.284L220.078 128.97H219.56L218.236 127.407V128.97H217.808V127.407L216.485 128.97H215.966L217.419 127.284L216.031 125.727H216.55L217.808 127.167V125.727H218.236V127.167L219.495 125.727H220.014L218.626 127.284ZM221.089 128.224L223.022 125.727H223.385V128.97H222.957V126.473L221.024 128.97H220.661V125.727H221.089V128.224ZM224.628 125.727H226.95V128.97H226.522V126.142H225.056V127.589C225.056 128.129 224.952 128.501 224.745 128.704C224.541 128.908 224.26 128.996 223.901 128.97V128.568C224.152 128.594 224.336 128.533 224.453 128.386C224.569 128.239 224.628 127.974 224.628 127.589V125.727ZM230.574 128.562C230.241 128.886 229.839 129.048 229.368 129.048C228.888 129.048 228.484 128.886 228.155 128.562C227.826 128.233 227.662 127.829 227.662 127.349C227.662 126.869 227.826 126.467 228.155 126.142C228.484 125.814 228.888 125.649 229.368 125.649C229.843 125.649 230.246 125.814 230.574 126.142C230.907 126.467 231.074 126.869 231.074 127.349C231.074 127.824 230.907 128.229 230.574 128.562ZM228.46 128.263C228.706 128.51 229.009 128.633 229.368 128.633C229.727 128.633 230.029 128.51 230.276 128.263C230.522 128.008 230.646 127.703 230.646 127.349C230.646 126.99 230.522 126.687 230.276 126.441C230.029 126.19 229.727 126.064 229.368 126.064C229.009 126.064 228.706 126.19 228.46 126.441C228.213 126.687 228.09 126.99 228.09 127.349C228.09 127.703 228.213 128.008 228.46 128.263ZM233.288 125.649C233.772 125.649 234.159 125.82 234.449 126.162C234.748 126.499 234.897 126.899 234.897 127.362C234.897 127.383 234.892 127.45 234.884 127.563H232.036C232.08 127.887 232.218 128.146 232.452 128.341C232.685 128.536 232.977 128.633 233.327 128.633C233.82 128.633 234.168 128.449 234.371 128.082L234.748 128.302C234.605 128.536 234.408 128.719 234.157 128.853C233.911 128.983 233.632 129.048 233.321 129.048C232.81 129.048 232.395 128.888 232.075 128.568C231.755 128.248 231.595 127.842 231.595 127.349C231.595 126.86 231.753 126.456 232.069 126.136C232.384 125.812 232.791 125.649 233.288 125.649ZM233.288 126.064C232.951 126.064 232.668 126.164 232.439 126.363C232.214 126.562 232.08 126.823 232.036 127.148H234.456C234.408 126.802 234.276 126.536 234.06 126.35C233.835 126.16 233.578 126.064 233.288 126.064ZM205.035 132.727H207.759V135.97H207.331V133.142H205.463V135.97H205.035V132.727ZM210.403 132.649C210.865 132.649 211.259 132.814 211.583 133.142C211.912 133.471 212.076 133.873 212.076 134.349C212.076 134.824 211.912 135.226 211.583 135.555C211.259 135.884 210.865 136.048 210.403 136.048C209.828 136.048 209.391 135.81 209.093 135.335V137.267H208.665V132.727H209.093V133.363C209.391 132.887 209.828 132.649 210.403 132.649ZM209.462 135.263C209.709 135.51 210.011 135.633 210.37 135.633C210.729 135.633 211.032 135.51 211.278 135.263C211.525 135.008 211.648 134.703 211.648 134.349C211.648 133.99 211.525 133.687 211.278 133.441C211.032 133.19 210.729 133.064 210.37 133.064C210.011 133.064 209.709 133.19 209.462 133.441C209.216 133.687 209.093 133.99 209.093 134.349C209.093 134.703 209.216 135.008 209.462 135.263ZM215.506 135.562C215.173 135.886 214.77 136.048 214.299 136.048C213.819 136.048 213.415 135.886 213.086 135.562C212.758 135.233 212.593 134.829 212.593 134.349C212.593 133.869 212.758 133.467 213.086 133.142C213.415 132.814 213.819 132.649 214.299 132.649C214.775 132.649 215.177 132.814 215.506 133.142C215.839 133.467 216.005 133.869 216.005 134.349C216.005 134.824 215.839 135.229 215.506 135.562ZM213.391 135.263C213.638 135.51 213.94 135.633 214.299 135.633C214.658 135.633 214.961 135.51 215.207 135.263C215.454 135.008 215.577 134.703 215.577 134.349C215.577 133.99 215.454 133.687 215.207 133.441C214.961 133.19 214.658 133.064 214.299 133.064C213.94 133.064 213.638 133.19 213.391 133.441C213.145 133.687 213.021 133.99 213.021 134.349C213.021 134.703 213.145 135.008 213.391 135.263ZM218.233 136.048C217.744 136.048 217.338 135.886 217.013 135.562C216.689 135.229 216.527 134.824 216.527 134.349C216.527 133.869 216.689 133.467 217.013 133.142C217.338 132.814 217.744 132.649 218.233 132.649C218.553 132.649 218.84 132.727 219.095 132.883C219.35 133.034 219.536 133.24 219.653 133.499L219.303 133.7C219.216 133.506 219.076 133.352 218.881 133.24C218.691 133.123 218.475 133.064 218.233 133.064C217.874 133.064 217.571 133.19 217.325 133.441C217.078 133.687 216.955 133.99 216.955 134.349C216.955 134.703 217.078 135.008 217.325 135.263C217.571 135.51 217.874 135.633 218.233 135.633C218.47 135.633 218.684 135.577 218.875 135.464C219.069 135.352 219.221 135.196 219.329 134.997L219.685 135.205C219.551 135.464 219.355 135.67 219.095 135.821C218.836 135.972 218.548 136.048 218.233 136.048ZM219.848 132.727H222.572V133.142H221.424V135.97H220.996V133.142H219.848V132.727ZM224.832 132.649C225.294 132.649 225.688 132.814 226.012 133.142C226.341 133.471 226.505 133.873 226.505 134.349C226.505 134.824 226.341 135.226 226.012 135.555C225.688 135.884 225.294 136.048 224.832 136.048C224.257 136.048 223.82 135.81 223.521 135.335V137.267H223.093V132.727H223.521V133.363C223.82 132.887 224.257 132.649 224.832 132.649ZM223.891 135.263C224.138 135.51 224.44 135.633 224.799 135.633C225.158 135.633 225.461 135.51 225.707 135.263C225.954 135.008 226.077 134.703 226.077 134.349C226.077 133.99 225.954 133.687 225.707 133.441C225.461 133.19 225.158 133.064 224.799 133.064C224.44 133.064 224.138 133.19 223.891 133.441C223.645 133.687 223.521 133.99 223.521 134.349C223.521 134.703 223.645 135.008 223.891 135.263ZM230.006 133.363V132.727H230.434V135.97H230.006V135.335C229.707 135.81 229.271 136.048 228.696 136.048C228.233 136.048 227.837 135.884 227.509 135.555C227.184 135.226 227.022 134.824 227.022 134.349C227.022 133.873 227.184 133.471 227.509 133.142C227.837 132.814 228.233 132.649 228.696 132.649C229.271 132.649 229.707 132.887 230.006 133.363ZM227.82 135.263C228.066 135.51 228.369 135.633 228.728 135.633C229.087 135.633 229.39 135.51 229.636 135.263C229.883 135.008 230.006 134.703 230.006 134.349C230.006 133.99 229.883 133.687 229.636 133.441C229.39 133.19 229.087 133.064 228.728 133.064C228.369 133.064 228.066 133.19 227.82 133.441C227.574 133.687 227.45 133.99 227.45 134.349C227.45 134.703 227.574 135.008 227.82 135.263ZM233.636 134.141V132.727H234.064V135.97H233.636V134.556H231.768V135.97H231.34V132.727H231.768V134.141H233.636ZM236.481 136.048C235.992 136.048 235.586 135.886 235.261 135.562C234.937 135.229 234.775 134.824 234.775 134.349C234.775 133.869 234.937 133.467 235.261 133.142C235.586 132.814 235.992 132.649 236.481 132.649C236.801 132.649 237.088 132.727 237.343 132.883C237.599 133.034 237.785 133.24 237.901 133.499L237.551 133.7C237.465 133.506 237.324 133.352 237.129 133.24C236.939 133.123 236.723 133.064 236.481 133.064C236.122 133.064 235.819 133.19 235.573 133.441C235.326 133.687 235.203 133.99 235.203 134.349C235.203 134.703 235.326 135.008 235.573 135.263C235.819 135.51 236.122 135.633 236.481 135.633C236.719 135.633 236.933 135.577 237.123 135.464C237.318 135.352 237.469 135.196 237.577 134.997L237.934 135.205C237.8 135.464 237.603 135.67 237.343 135.821C237.084 135.972 236.796 136.048 236.481 136.048ZM238.096 132.727H240.82V133.142H239.672V135.97H239.244V133.142H238.096V132.727ZM243.404 134.303C243.759 134.433 243.936 134.686 243.936 135.062C243.936 135.33 243.845 135.549 243.664 135.717C243.486 135.886 243.238 135.97 242.918 135.97H241.342V132.727H242.788C243.099 132.727 243.341 132.807 243.514 132.967C243.692 133.127 243.78 133.337 243.78 133.596C243.78 133.921 243.655 134.156 243.404 134.303ZM242.788 133.142H241.77V134.128H242.788C243.164 134.128 243.352 133.96 243.352 133.622C243.352 133.471 243.303 133.354 243.203 133.272C243.108 133.186 242.97 133.142 242.788 133.142ZM241.77 135.555H242.918C243.108 135.555 243.253 135.51 243.352 135.419C243.456 135.328 243.508 135.201 243.508 135.036C243.508 134.881 243.456 134.759 243.352 134.673C243.253 134.587 243.108 134.543 242.918 134.543H241.77V135.555ZM247.302 135.562C246.969 135.886 246.567 136.048 246.096 136.048C245.616 136.048 245.212 135.886 244.883 135.562C244.554 135.233 244.39 134.829 244.39 134.349C244.39 133.869 244.554 133.467 244.883 133.142C245.212 132.814 245.616 132.649 246.096 132.649C246.571 132.649 246.974 132.814 247.302 133.142C247.635 133.467 247.802 133.869 247.802 134.349C247.802 134.824 247.635 135.229 247.302 135.562ZM245.188 135.263C245.434 135.51 245.737 135.633 246.096 135.633C246.455 135.633 246.757 135.51 247.004 135.263C247.25 135.008 247.374 134.703 247.374 134.349C247.374 133.99 247.25 133.687 247.004 133.441C246.757 133.19 246.455 133.064 246.096 133.064C245.737 133.064 245.434 133.19 245.188 133.441C244.941 133.687 244.818 133.99 244.818 134.349C244.818 134.703 244.941 135.008 245.188 135.263Z" fill="#212529"/>
</g>
<defs>
<linearGradient id="paint0_linear_1986_1816" x1="-80.414" y1="703.39" x2="-40.3432" y2="701.882" gradientUnits="userSpaceOnUse">
<stop stop-color="#F8F9FA"/>
<stop offset="1" stop-color="#F8F9FA" stop-opacity="0"/>
</linearGradient>
<linearGradient id="paint1_linear_1986_1816" x1="578.1" y1="269.886" x2="612.578" y2="268.687" gradientUnits="userSpaceOnUse">
<stop stop-color="#F8F9FA"/>
<stop offset="1" stop-color="#F8F9FA" stop-opacity="0"/>
</linearGradient>
<clipPath id="clip0_1986_1816">
<rect width="505.26" height="371" fill="white" transform="translate(-7)"/>
</clipPath>
<clipPath id="clip1_1986_1816">
<rect width="13.4545" height="14.8858" fill="white" transform="translate(218.453 78.4375)"/>
</clipPath>
</defs>
</svg>
