<svg width="92" height="13" viewBox="0 0 92 13" fill="none" xmlns="http://www.w3.org/2000/svg">
<path d="M6.11985 13L8.41383 9.70938H11.4776C12.2086 9.70938 13.0718 9.70938 13.6628 9.75C13.3362 9.295 12.8229 8.50688 12.4186 7.8975L10.2335 4.50938L4.48686 13H0L7.84617 1.43C8.3594 0.6825 9.11368 0 10.3034 0C11.4388 0 12.1853 0.63375 12.7063 1.43L20.358 13H6.11985Z" fill="white"/>
<path d="M29.915 13H21.7189V5.02938H25.5214V9.7175H29.915C32.0223 9.7175 33.5387 8.49875 33.5387 6.6625C33.5387 4.86688 31.9679 3.5425 29.915 3.5425H21.7189L24.1217 0.219375H29.9072C34.1919 0.219375 37.279 2.80313 37.279 6.49188C37.279 10.1806 34.1608 13 29.915 13Z" fill="white"/>
<path d="M42.4813 13L44.7675 9.70938H47.8391C48.57 9.70938 49.4332 9.70938 50.0164 9.75C49.6898 9.295 49.1766 8.50688 48.7722 7.8975L46.5793 4.50938L40.8405 13H36.3614L44.2076 1.43C44.7208 0.6825 45.4673 0 46.6571 0C47.7924 0 48.5389 0.63375 49.0599 1.43L56.7195 13H42.4813Z" fill="white"/>
<path d="M75.4367 13H70.3667L67.645 9.61188H61.8284V13H58.0414V6.45938H68.6948C69.8612 6.45938 70.7788 5.90688 70.7788 5.02125C70.7788 4.03 69.9934 3.53438 68.6948 3.53438H58.0414L60.5142 0.21125H68.3837C71.1676 0.21125 74.6747 1.12125 74.6747 4.7775C74.6747 6.76813 73.4849 8.40938 71.4709 8.83188C72.0852 9.34375 72.6529 9.90438 73.1816 10.5138L75.4367 13Z" fill="white"/>
<path d="M92 0.21125L89.5505 3.53438H85.1803V13H81.3933V3.53438H75.6467L78.104 0.21125H92Z" fill="white"/>
</svg>
