<svg width="16" height="25" viewBox="0 0 16 25" fill="none" xmlns="http://www.w3.org/2000/svg">
<path d="M15.2728 0.702426C15.2728 0.518308 15.1996 0.341732 15.0694 0.211541C14.9392 0.0813501 14.7627 0.00820955 14.5785 0.00820955H11.1075C9.3596 -0.0788579 7.64832 0.529415 6.34753 1.70013C5.04674 2.87084 4.26219 4.50881 4.1653 6.25616V10.0049H0.694216C0.510099 10.0049 0.333522 10.0781 0.203331 10.2083C0.0731406 10.3384 0 10.515 0 10.6991V14.3091C0 14.4932 0.0731406 14.6698 0.203331 14.8C0.333522 14.9301 0.510099 15.0033 0.694216 15.0033H4.1653V24.3058C4.1653 24.4899 4.23844 24.6665 4.36863 24.7967C4.49882 24.9269 4.6754 25 4.85952 25H9.02481C9.20893 25 9.38551 24.9269 9.5157 24.7967C9.64589 24.6665 9.71903 24.4899 9.71903 24.3058V15.0033H13.3567C13.5111 15.0055 13.6618 14.9562 13.785 14.8632C13.9082 14.7701 13.9969 14.6387 14.0371 14.4896L15.0367 10.8796C15.0643 10.7771 15.0681 10.6695 15.0476 10.5653C15.0271 10.461 14.983 10.3629 14.9186 10.2784C14.8542 10.1939 14.7713 10.1253 14.6762 10.0779C14.5812 10.0305 14.4765 10.0055 14.3703 10.0049H9.71903V6.25616C9.75357 5.91249 9.91496 5.59403 10.1717 5.36297C10.4284 5.13191 10.7621 5.00484 11.1075 5.00657H14.5785C14.7627 5.00657 14.9392 4.93343 15.0694 4.80324C15.1996 4.67305 15.2728 4.49647 15.2728 4.31235V0.702426Z" fill="white"/>
</svg>
