<svg width="24" height="24" viewBox="0 0 24 24" fill="none" xmlns="http://www.w3.org/2000/svg">
<path fill-rule="evenodd" clip-rule="evenodd" d="M0.75 17V7C0.75 5.3424 1.40848 3.75269 2.58058 2.58058C3.75269 1.40848 5.3424 0.75 7 0.75H17C18.6576 0.75 20.2473 1.40848 21.4194 2.58058C22.5915 3.75269 23.25 5.3424 23.25 7V17C23.25 18.6576 22.5915 20.2473 21.4194 21.4194C20.2473 22.5915 18.6576 23.25 17 23.25H7C5.3424 23.25 3.75269 22.5915 2.58058 21.4194C1.40848 20.2473 0.75 18.6576 0.75 17ZM12.002 17C13.328 17 14.5998 16.4732 15.5375 15.5355C16.4752 14.5979 17.002 13.3261 17.002 12C17.002 10.6739 16.4752 9.40215 15.5375 8.46447C14.5998 7.52678 13.328 7 12.002 7C10.6759 7 9.4041 7.52678 8.46642 8.46447C7.52874 9.40215 7.00195 10.6739 7.00195 12C7.00195 13.3261 7.52874 14.5979 8.46642 15.5355C9.4041 16.4732 10.6759 17 12.002 17ZM18.5607 7.56066C18.2794 7.84196 17.8978 8 17.5 8C17.1022 8 16.7206 7.84196 16.4393 7.56066C16.158 7.27936 16 6.89782 16 6.5C16 6.10218 16.158 5.72064 16.4393 5.43934C16.7206 5.15804 17.1022 5 17.5 5C17.8978 5 18.2794 5.15804 18.5607 5.43934C18.842 5.72064 19 6.10218 19 6.5C19 6.89782 18.842 7.27936 18.5607 7.56066Z" fill="white"/>
</svg>
