<svg width="36" height="40" viewBox="0 0 36 40" fill="none" xmlns="http://www.w3.org/2000/svg">
<path d="M17.5972 16.5713C21.4002 13.6946 23.8711 9.17405 23.8711 4.07252H23.8281L23.8711 4.06544V0.52271H17.9051V4.07252L14.9186 4.05835V0.515625H8.95257V4.06544L5.96599 4.07252V0.52271H0V39.4785H5.96599V9.97471H15.8783C14.8541 11.3139 13.5076 12.3979 11.9391 13.0852V21.7791C21.8084 21.7791 29.8443 29.7219 29.8443 39.4856H35.8103C35.8103 28.3827 28.0466 19.0866 17.5972 16.5713Z" fill="#212529"/>
<path d="M31.0677 9.46819C33.6853 9.46819 35.8073 7.46409 35.8073 4.99191C35.8073 2.51973 33.6853 0.515625 31.0677 0.515625C28.4501 0.515625 26.3281 2.51973 26.3281 4.99191C26.3281 7.46409 28.4501 9.46819 31.0677 9.46819Z" fill="#212529"/>
</svg>
