<svg width="45" height="50" viewBox="0 0 45 50" fill="none" xmlns="http://www.w3.org/2000/svg">
<path d="M22.113 20.6C26.892 16.9091 29.997 11.1091 29.997 4.56364H29.943L29.997 4.55455V0.00909091H22.5V4.56364L18.747 4.54545V0H11.25V4.55455L7.497 4.56364V0.00909091H0V49.9909H7.497V12.1364H19.953C18.666 13.8545 16.974 15.2455 15.003 16.1273V27.2818C27.405 27.2818 37.503 37.4727 37.503 50H45C45 35.7545 35.244 23.8273 22.113 20.6Z" fill="white"/>
<path d="M38.9952 12.1273C42.3106 12.1273 44.9982 9.41249 44.9982 6.06364C44.9982 2.71478 42.3106 0 38.9952 0C35.6798 0 32.9922 2.71478 32.9922 6.06364C32.9922 9.41249 35.6798 12.1273 38.9952 12.1273Z" fill="white"/>
</svg>
