<svg width="34" height="24" viewBox="0 0 34 24" fill="none" xmlns="http://www.w3.org/2000/svg">
<path fill-rule="evenodd" clip-rule="evenodd" d="M12.2372 10.3751C12.5824 10.2764 12.9422 10.4763 13.0408 10.8215L14.8741 17.2382C14.9727 17.5833 14.7729 17.9431 14.4277 18.0417C14.0825 18.1403 13.7228 17.9405 13.6241 17.5953L11.7908 11.1786C11.6922 10.8335 11.8921 10.4737 12.2372 10.3751Z" fill="white"/>
<path fill-rule="evenodd" clip-rule="evenodd" d="M10.9429 0.375838C11.2416 0.574967 11.3223 0.978532 11.1232 1.27723L7.45653 6.77723C7.2574 7.07592 6.85383 7.15663 6.55514 6.9575C6.25645 6.75837 6.17573 6.35481 6.37486 6.05612L10.0415 0.556116C10.2407 0.257422 10.6442 0.176709 10.9429 0.375838ZM23.0551 0.375838C23.3538 0.176709 23.7574 0.257422 23.9565 0.556116L27.6232 6.05612C27.8223 6.35481 27.7416 6.75837 27.4429 6.9575C27.1442 7.15663 26.7407 7.07592 26.5415 6.77723L22.8749 1.27723C22.6757 0.978532 22.7564 0.574967 23.0551 0.375838Z" fill="white"/>
<path fill-rule="evenodd" clip-rule="evenodd" d="M19.5732 18.0417C19.228 17.9431 19.0281 17.5833 19.1267 17.2382L20.9601 10.8215C21.0587 10.4763 21.4185 10.2764 21.7636 10.3751C22.1088 10.4737 22.3087 10.8335 22.2101 11.1786L20.3767 17.5953C20.2781 17.9405 19.9183 18.1403 19.5732 18.0417Z" fill="white"/>
<path fill-rule="evenodd" clip-rule="evenodd" d="M3.60906 7.07289C3.55183 7.06735 3.48123 7.06661 3.25 7.06661V5.76661C3.26048 5.76661 3.2708 5.76661 3.28098 5.76661C3.46794 5.76657 3.60626 5.76654 3.73431 5.77894C4.78297 5.88044 5.67189 6.59351 5.99847 7.59518C6.03834 7.71749 6.06832 7.85251 6.10884 8.03503C6.11105 8.04497 6.11329 8.05505 6.11556 8.06528L8.68846 19.6433C8.8588 20.4099 8.975 20.9276 9.11081 21.3122C9.24072 21.6801 9.36505 21.8537 9.50961 21.9697C9.65418 22.0856 9.85057 22.1693 10.2379 22.2164C10.6428 22.2655 11.1734 22.2666 11.9587 22.2666H22.0413C22.8266 22.2666 23.3572 22.2655 23.7621 22.2164C24.1494 22.1693 24.3458 22.0856 24.4904 21.9697C24.635 21.8537 24.7593 21.6801 24.8892 21.3122C25.025 20.9276 25.1412 20.4099 25.3115 19.6433L27.8912 8.03503C27.9317 7.85252 27.9617 7.71749 28.0015 7.59518C28.3281 6.59351 29.217 5.88044 30.2657 5.77894C30.3937 5.76654 30.5321 5.76657 30.719 5.76661L30.75 5.76661C31.109 5.76661 31.4 6.05762 31.4 6.41661C31.4 6.77559 31.109 7.06661 30.75 7.06661C30.5188 7.06661 30.4482 7.06735 30.3909 7.07289C29.8567 7.1246 29.4039 7.48786 29.2375 7.99815C29.2197 8.05281 29.2036 8.12156 29.1535 8.34729L26.5719 19.9642C26.4125 20.6819 26.2802 21.2773 26.115 21.7451C25.941 22.238 25.7077 22.6598 25.3038 22.9837C24.9 23.3077 24.4376 23.4439 23.9187 23.5069C23.4263 23.5666 22.8164 23.5666 22.0812 23.5666H11.9188C11.1836 23.5666 10.5737 23.5666 10.0813 23.5069C9.56239 23.4439 9.10001 23.3077 8.69617 22.9837C8.29232 22.6598 8.05902 22.238 7.88498 21.7451C7.71983 21.2773 7.58753 20.6819 7.42807 19.9643L4.84652 8.34729C4.79636 8.12156 4.78032 8.05281 4.7625 7.99815C4.59613 7.48786 4.14328 7.1246 3.60906 7.07289Z" fill="white"/>
<path fill-rule="evenodd" clip-rule="evenodd" d="M0.765625 6.4166C0.765625 6.05762 1.05664 5.7666 1.41562 5.7666H32.5823C32.9413 5.7666 33.2323 6.05762 33.2323 6.4166C33.2323 6.77559 32.9413 7.0666 32.5823 7.0666H1.41562C1.05664 7.0666 0.765625 6.77559 0.765625 6.4166Z" fill="white"/>
</svg>
