<svg width="28" height="28" viewBox="0 0 28 28" fill="none" xmlns="http://www.w3.org/2000/svg">
<path d="M13.9999 1.5C16.1169 1.5 17.8332 3.21624 17.8332 5.33333H18.8332C18.8332 2.66396 16.6692 0.5 13.9999 0.5V1.5ZM10.1665 5.33333C10.1665 3.21624 11.8828 1.5 13.9999 1.5V0.5C11.3305 0.5 9.16652 2.66396 9.16652 5.33333H10.1665ZM10.1665 8.66696V5.33333H9.16652V8.66696H10.1665ZM5.33333 10.167H8.66652V9.16696H5.33333V10.167ZM1.5 14.0003C1.5 11.8832 3.21624 10.167 5.33333 10.167V9.16696C2.66396 9.16696 0.5 11.3309 0.5 14.0003H1.5ZM5.33333 17.8336C3.21624 17.8336 1.5 16.1174 1.5 14.0003H0.5C0.5 16.6697 2.66396 18.8336 5.33333 18.8336V17.8336ZM8.66652 17.8336H5.33333V18.8336H8.66652V17.8336ZM10.1665 22.6667V19.3336H9.16652V22.6667H10.1665ZM13.9999 26.5C11.8828 26.5 10.1665 24.7838 10.1665 22.6667H9.16652C9.16652 25.336 11.3305 27.5 13.9999 27.5V26.5ZM17.8332 22.6667C17.8332 24.7838 16.1169 26.5 13.9999 26.5V27.5C16.6692 27.5 18.8332 25.336 18.8332 22.6667H17.8332ZM17.8332 19.3336V22.6667H18.8332V19.3336H17.8332ZM22.6667 17.8336H19.3332V18.8336H22.6667V17.8336ZM26.5 14.0003C26.5 16.1174 24.7838 17.8336 22.6667 17.8336V18.8336C25.336 18.8336 27.5 16.6697 27.5 14.0003H26.5ZM22.6667 10.167C24.7838 10.167 26.5 11.8832 26.5 14.0003H27.5C27.5 11.3309 25.336 9.16696 22.6667 9.16696V10.167ZM19.3332 10.167H22.6667V9.16696H19.3332V10.167ZM17.8332 5.33333V8.66696H18.8332V5.33333H17.8332ZM19.3332 9.16696C19.057 9.16696 18.8332 8.94311 18.8332 8.66696H17.8332C17.8332 9.49539 18.5048 10.167 19.3332 10.167V9.16696ZM18.8332 19.3336C18.8332 19.0575 19.057 18.8336 19.3332 18.8336V17.8336C18.5048 17.8336 17.8332 18.5052 17.8332 19.3336H18.8332ZM8.66652 18.8336C8.94266 18.8336 9.16652 19.0575 9.16652 19.3336H10.1665C10.1665 18.5052 9.49495 17.8336 8.66652 17.8336V18.8336ZM9.16652 8.66696C9.16652 8.9431 8.94266 9.16696 8.66652 9.16696V10.167C9.49495 10.167 10.1665 9.49539 10.1665 8.66696H9.16652Z" fill="#FEFCFB"/>
</svg>
