<svg width="24" height="30" viewBox="0 0 24 30" fill="none" xmlns="http://www.w3.org/2000/svg">
<path d="M11.5038 0.5C8.45185 0.503686 5.52592 1.74658 3.36785 3.95603C1.20978 6.16548 -0.00419976 9.16108 -0.00780025 12.2857C-0.0114127 14.8092 0.78422 17.265 2.25847 19.2854C2.2934 19.3332 2.32892 19.381 2.3643 19.4285C2.45611 19.5519 2.63848 19.7962 2.6765 19.8414L10.7336 29.57C11.1336 30.0529 11.8741 30.0529 12.274 29.57L20.3353 19.8361C20.3799 19.7811 20.6761 19.3842 20.6954 19.3585C20.6961 19.3576 20.6965 19.3566 20.6969 19.3555C20.6972 19.3545 20.6978 19.3535 20.6984 19.3526C22.2051 17.3199 23.019 14.8374 23.0154 12.2857C23.0118 9.16108 21.7978 6.16548 19.6398 3.95603C17.4817 1.74658 14.5558 0.503686 11.5038 0.5ZM11.5038 16.5714C10.6759 16.5714 9.86657 16.3201 9.17818 15.8492C8.48978 15.3782 7.95325 14.7089 7.63642 13.9258C7.31959 13.1427 7.23669 12.281 7.39821 11.4496C7.55973 10.6183 7.95841 9.85462 8.54384 9.25526C9.12926 8.65589 9.87515 8.24771 10.6872 8.08235C11.4992 7.91698 12.3408 8.00185 13.1057 8.32623C13.8706 8.65061 14.5244 9.19992 14.9844 9.9047C15.4444 10.6095 15.6899 11.4381 15.6899 12.2857C15.6885 13.4219 15.247 14.5112 14.4623 15.3146C13.6775 16.118 12.6136 16.57 11.5038 16.5714Z" fill="#212529"/>
</svg>
