<svg width="25" height="26" viewBox="0 0 25 26" fill="none" xmlns="http://www.w3.org/2000/svg">
<path d="M8.72326 7.65098C8.94435 7.66003 9.18895 7.67039 9.42134 8.18697C9.58016 8.54012 9.84739 9.19849 10.0604 9.72316C10.2173 10.1098 10.3447 10.4238 10.3777 10.4896C10.4552 10.6448 10.5069 10.8259 10.4035 11.0331C10.388 11.064 10.3737 11.0932 10.36 11.1212C10.2823 11.2798 10.2252 11.3963 10.0936 11.5503C10.042 11.6106 9.98869 11.6754 9.93536 11.7403C9.82828 11.8705 9.72119 12.0008 9.6282 12.0936C9.4726 12.2482 9.31098 12.4163 9.49194 12.7266C9.67297 13.0371 10.2956 14.0525 11.2178 14.8747C12.2085 15.758 13.0691 16.1316 13.5061 16.3214C13.592 16.3586 13.6615 16.3888 13.7124 16.4144C14.0227 16.5695 14.2036 16.5436 14.3846 16.3363C14.5656 16.1295 15.1598 15.4309 15.3666 15.1206C15.5734 14.8101 15.7803 14.8618 16.0646 14.9652C16.3491 15.0686 17.8742 15.8192 18.1844 15.9743C18.2449 16.0046 18.3015 16.0319 18.3539 16.0572C18.5704 16.1617 18.7166 16.2322 18.779 16.3363C18.8566 16.4661 18.8566 17.0869 18.5981 17.8112C18.3395 18.5356 17.073 19.2341 16.5042 19.2859C16.4494 19.2908 16.395 19.2972 16.3391 19.3038C15.8134 19.3656 15.15 19.4436 12.7816 18.5097C9.86746 17.3605 7.94599 14.5126 7.54902 13.9243C7.51646 13.876 7.49416 13.843 7.48241 13.8273L7.47895 13.8227C7.31168 13.5991 6.21572 12.1345 6.21572 10.6189C6.21572 9.19031 6.91795 8.44145 7.24104 8.0969C7.26312 8.07336 7.28343 8.0517 7.30162 8.03184C7.58581 7.72141 7.92196 7.64372 8.12876 7.64372C8.14009 7.64372 8.15143 7.64372 8.16277 7.64372C8.35807 7.6437 8.55239 7.64367 8.72326 7.65098Z" fill="white"/>
<path fill-rule="evenodd" clip-rule="evenodd" d="M1.77833 19.563C0.676267 17.6844 0.100188 15.5555 0.100188 13.3513C0.100188 6.51353 5.68564 0.953125 12.5234 0.953125C15.8547 0.953125 18.9605 2.25556 21.3149 4.58492C23.6443 6.93933 24.9467 10.0451 24.9467 13.3764C24.9467 20.2142 19.3612 25.7746 12.5234 25.7746C10.4445 25.7746 8.3907 25.2736 6.58733 24.2718L0 26L1.77833 19.563ZM3.78208 18.8616L4.03255 19.2373L2.98058 23.0445L6.88789 22.0175L7.26359 22.243C8.84155 23.1947 10.67 23.6957 12.5234 23.6957C18.2091 23.6957 22.8428 19.062 22.8428 13.3764C22.8428 10.6212 21.7657 8.01634 19.8121 6.06269C17.8835 4.13408 15.2786 3.05706 12.5234 3.05706C6.8378 3.05706 2.20413 7.66569 2.20413 13.3764C2.20413 15.305 2.75516 17.2085 3.78208 18.8616Z" fill="white"/>
</svg>
